<svg width="129" height="146" viewBox="0 0 129 146" fill="none" xmlns="http://www.w3.org/2000/svg">
<path d="M7.6892 145.045H51.1156C45.683 139.956 40.9916 134.126 37.558 127.32C36.9325 126.074 36.3274 124.682 35.9602 123.263C35.3347 120.854 35.3823 118.354 37.1093 116.291C39.3394 113.625 43.3169 113.418 45.989 115.619C68.5079 134.133 91.8767 144.449 127.096 145.052H128.218V28.7145C128.218 8.60144 107.766 -4.93419 89.8233 3.47106C39.2646 27.1636 3.57569 78.1005 0.890014 137.81C0.713235 141.756 3.81366 145.052 7.6892 145.052V145.045ZM92.9102 52.8224C91.8359 54.6226 90.3265 55.9519 88.6335 57.0666C87.178 58.0174 85.5866 58.8069 84.0149 59.5866C82.8627 60.1582 81.7211 60.7245 80.6512 61.3454C76.2657 63.8933 72.0843 66.815 68.1747 70.076C68.047 70.1825 67.9193 70.2895 67.7915 70.3965C66.5315 71.452 65.2591 72.5179 63.7961 73.2471C60.7636 74.7564 57.0921 74.1056 55.705 70.6992C53.0898 64.2666 59.1724 57.5711 63.3854 52.9335C63.707 52.5795 64.0177 52.2375 64.3128 51.9085C68.5555 47.1866 73.4033 43.0394 78.7135 39.6122C83.3981 36.5866 89.7689 37.3621 92.849 42.5409C94.7187 45.6911 94.7935 49.6861 92.9169 52.8294L92.9102 52.8224Z" fill="#D04376"/>
<path d="M7.6892 145.045H51.1156C45.683 139.956 40.9916 134.126 37.558 127.32C36.9325 126.074 36.3274 124.682 35.9602 123.263C35.3347 120.854 35.3823 118.354 37.1093 116.291C39.3394 113.625 43.3169 113.418 45.989 115.619C68.5079 134.133 91.8767 144.449 127.096 145.052H128.218V28.7145C128.218 8.60144 107.766 -4.93419 89.8233 3.47106C39.2646 27.1636 3.57569 78.1005 0.890014 137.81C0.713235 141.756 3.81366 145.052 7.6892 145.052V145.045ZM92.9102 52.8224C91.8359 54.6226 90.3265 55.9519 88.6335 57.0666C87.178 58.0174 85.5866 58.8069 84.0149 59.5866C82.8627 60.1582 81.7211 60.7245 80.6512 61.3454C76.2657 63.8933 72.0843 66.815 68.1747 70.076C68.047 70.1825 67.9193 70.2895 67.7915 70.3965C66.5315 71.452 65.2591 72.5179 63.7961 73.2471C60.7636 74.7564 57.0921 74.1056 55.705 70.6992C53.0898 64.2666 59.1724 57.5711 63.3854 52.9335C63.707 52.5795 64.0177 52.2375 64.3128 51.9085C68.5555 47.1866 73.4033 43.0394 78.7135 39.6122C83.3981 36.5866 89.7689 37.3621 92.849 42.5409C94.7187 45.6911 94.7935 49.6861 92.9169 52.8294L92.9102 52.8224Z" stroke="#D04376" style="mix-blend-mode:screen"/>
</svg>
