<svg width="100%" height="100%" viewBox="0 0 21 22" fill="none" xmlns="http://www.w3.org/2000/svg">
    <path
        d="M14.3359 7.89154C14.4808 7.63347 14.4713 7.30991 14.3011 7.04307C14.0183 6.60102 13.3903 6.48394 12.8707 6.79605L12.8706 6.79613C12.1156 7.24931 11.4267 7.79756 10.8241 8.42128C10.7763 8.47082 10.7275 8.52089 10.6782 8.57151C10.3861 8.87101 10.0752 9.18983 9.85011 9.53302C9.58608 9.93564 9.53076 10.2351 9.63817 10.4811C9.6748 10.5647 9.7323 10.6087 9.81431 10.6295C9.90816 10.6532 10.0409 10.6446 10.1774 10.5814C10.3411 10.5055 10.4861 10.3928 10.685 10.2383C10.7011 10.2258 10.7175 10.2131 10.7343 10.2001C10.7343 10.2 10.7344 10.2 10.7344 10.2L11.0408 10.5951C11.6241 10.1426 12.248 9.73708 12.9024 9.3835L14.3359 7.89154ZM14.3359 7.89154L14.3108 7.93069C14.2062 8.09373 14.0494 8.23029 13.8332 8.36278L14.3359 7.89154ZM2.5156 21.5V21.499H8.49534H9.83041L8.82378 20.622C8.0482 19.9463 7.39035 19.1827 6.91232 18.3017C6.82711 18.1438 6.7562 17.9879 6.71569 17.8423L6.71556 17.8418C6.64709 17.5965 6.67807 17.4532 6.77708 17.3432L6.77716 17.3431C6.91831 17.1862 7.21367 17.1494 7.42625 17.3124L7.42668 17.3127C10.8686 19.9445 14.4584 21.4146 19.8247 21.4999L19.8247 21.5H19.8326H20H20.5V21V4.85508C20.5 1.66734 17.045 -0.402085 14.0713 0.893486L14.0712 0.893513C6.3691 4.25042 0.912402 11.4776 0.501658 19.9708L0.501653 19.9709C0.460204 20.8315 1.18022 21.5 2.0156 21.5H2.5156Z"
        stroke="current" />
</svg>