<svg width="349" height="134" viewBox="0 0 349 134" fill="none" xmlns="http://www.w3.org/2000/svg">
    <path opacity="0.3" d="M0 13H142C158.569 13 172 26.4315 172 43V134H0V13Z" fill="url(#paint0_linear_2404_6273)" />
    <path opacity="0.5" d="M0 31H142C158.569 31 172 44.4315 172 61V134H0V31Z" fill="url(#paint1_linear_2404_6273)" />
    <path opacity="0.3" d="M349 134L207 134C190.431 134 177 120.569 177 104L177 13L349 13L349 134Z"
        fill="url(#paint2_linear_2404_6273)" />
    <path opacity="0.5" d="M349 134L207 134C190.431 134 177 120.569 177 104L177 31L349 31L349 134Z"
        fill="url(#paint3_linear_2404_6273)" />
    <path
        d="M66.9332 133.994H104.789C100.053 129.509 95.9633 124.372 92.9702 118.375C92.425 117.276 91.8975 116.05 91.5774 114.799C91.0321 112.676 91.0736 110.473 92.5791 108.655C94.5231 106.306 97.9904 106.123 100.32 108.063C119.95 124.378 140.321 133.469 171.022 134H172V31.4797C172 13.7554 154.172 1.82739 138.531 9.23438C94.4579 30.113 63.3474 75.0004 61.0063 127.618C60.8522 131.096 63.5549 134 66.9332 134V133.994ZM141.221 52.7245C140.285 54.3108 138.969 55.4823 137.493 56.4646C135.294 57.9167 132.74 58.9417 130.535 60.2352C126.712 62.4805 123.067 65.0552 119.659 67.9289C118.45 68.9479 117.247 70.0156 115.842 70.7233C113.199 72.0534 109.998 71.4799 108.789 68.4781C106.335 62.3768 112.665 56.007 116.293 51.9191C119.991 47.758 124.217 44.1033 128.846 41.0832C132.93 38.4169 138.483 39.1003 141.168 43.6641C142.798 46.4401 142.863 49.9606 141.227 52.7306L141.221 52.7245Z"
        fill="#D04376" />
    <path
        d="M229.303 52.4054C222.515 52.955 215.72 54.1508 208.745 55.8781C205.632 56.6512 202.367 54.7668 201.728 51.6202C201.299 49.5064 202.162 47.6462 203.471 46.0759C204.292 45.0915 205.288 44.2218 206.253 43.4728C215.932 35.9475 227.831 32.6077 239.833 31.1823C240.804 31.0676 241.776 30.9649 242.747 30.8803C242.759 30.8803 242.765 30.8622 242.753 30.8562C224.422 15.111 201.86 4.17334 177 0V109.842C177 123.183 187.807 134 201.136 134H283.948C287.393 134 290.151 131.125 289.994 127.683C289.306 112.711 286.204 98.3726 281.057 85.0493C272.905 63.9349 251.846 50.5875 229.303 52.4054ZM261.67 100.71C258.683 105.421 255.062 109.733 250.953 113.502C246.91 117.204 240.611 123.654 234.577 121.148C231.608 119.916 231.047 116.654 232.356 113.961C233.056 112.529 234.112 111.303 235.12 110.071C237.956 106.598 240.508 102.884 242.729 98.9886C244.008 96.7419 245.016 94.1388 246.458 91.8981C247.206 90.7325 248.075 89.6635 249.155 88.7998C252.45 86.1666 257.012 86.2511 260.24 88.9629C263.727 91.8921 264.071 96.9291 261.67 100.716V100.71Z"
        fill="#1498AA" />
    <defs>
        <linearGradient id="paint0_linear_2404_6273" x1="172" y1="134" x2="0" y2="134" gradientUnits="userSpaceOnUse">
            <stop stop-color="#D04376" />
            <stop offset="1" stop-color="#242036" />
        </linearGradient>
        <linearGradient id="paint1_linear_2404_6273" x1="172" y1="134" x2="0" y2="134" gradientUnits="userSpaceOnUse">
            <stop stop-color="#D04376" />
            <stop offset="1" stop-color="#242036" />
        </linearGradient>
        <linearGradient id="paint2_linear_2404_6273" x1="177" y1="13" x2="349" y2="13" gradientUnits="userSpaceOnUse">
            <stop stop-color="#1498AA" />
            <stop offset="1" stop-color="#242036" />
        </linearGradient>
        <linearGradient id="paint3_linear_2404_6273" x1="177" y1="31" x2="349" y2="31" gradientUnits="userSpaceOnUse">
            <stop stop-color="#1498AA" />
            <stop offset="1" stop-color="#242036" />
        </linearGradient>
    </defs>
</svg>