<svg width="30" height="30" viewBox="0 0 30 30" fill="none" xmlns="http://www.w3.org/2000/svg">
<rect x="3" y="3" width="24" height="24" rx="2.5" stroke="white" stroke-opacity="0.8"/>
<path d="M7.84482 20H5.47178L9.14853 9.39453H11.9757L15.6378 20H13.2794L12.4811 17.5537H8.64316L7.84482 20ZM9.1998 15.8398H11.9244L10.5987 11.7822H10.5255L9.1998 15.8398ZM16.164 20V9.39453H20.3827C22.7191 9.39453 23.9057 10.5225 23.8983 12.1191C23.9057 13.3643 23.0854 14.1479 21.994 14.3896V14.4922C23.1879 14.5508 24.3158 15.5029 24.3231 17.0703C24.3158 18.7549 23.0561 20 20.661 20H16.164ZM18.3612 18.1836H20.2216C21.496 18.1909 22.0453 17.6636 22.038 16.8652C22.0453 15.9717 21.3642 15.3418 20.2802 15.3418H18.3612V18.1836ZM18.3612 13.833H20.0604C20.9833 13.8403 21.6791 13.3203 21.6718 12.4707C21.6791 11.7017 21.1078 11.1816 20.1044 11.1816H18.3612V13.833Z" fill="white" fill-opacity="0.8"/>
</svg>
