<svg width="24" height="24" viewBox="0 0 24 24" fill="none" xmlns="http://www.w3.org/2000/svg">
<path d="M7.84863 19C7.84863 19.394 7.9521 19.7841 8.15311 20.148C8.35413 20.512 8.64877 20.8427 9.02021 21.1213C9.39164 21.3999 9.8326 21.6209 10.3179 21.7716C10.8032 21.9224 11.3233 22 11.8486 22C12.3739 22 12.8941 21.9224 13.3794 21.7716C13.8647 21.6209 14.3056 21.3999 14.6771 21.1213C15.0485 20.8427 15.3431 20.512 15.5442 20.1481C15.7452 19.7841 15.8486 19.394 15.8486 19L11.8486 19L7.84863 19Z" stroke="white"/>
<path d="M19.6008 15.1212L19.9803 14.7956V14.7956L19.6008 15.1212ZM4.09658 15.1212L4.47606 15.4468L4.09658 15.1212ZM10.4345 2.43934L10.7345 2.83934L10.4345 2.43934ZM11.0833 2.11418L11.2317 2.59167L11.0833 2.11418ZM13.2629 2.43934L13.5629 2.03934L13.5629 2.03934L13.2629 2.43934ZM10.001 2.92597L9.56327 2.68425L9.56327 2.68425L10.001 2.92597ZM20.6539 17.0137L21.1397 16.8951L20.6539 17.0137ZM13.6965 2.92597L13.2588 3.1677L13.2588 3.1677L13.6965 2.92597ZM14.2759 3.49809L14.1135 3.971L14.2759 3.49809ZM19.2689 8.33333C19.2689 6.85292 18.5754 5.6959 17.6347 4.83308C16.7017 3.97736 15.5095 3.39301 14.4382 3.02519L14.1135 3.971C15.1071 4.31215 16.1614 4.83872 16.9588 5.57004C17.7484 6.29425 18.2689 7.20036 18.2689 8.33333H19.2689ZM19.9803 14.7956C19.647 14.4072 19.4664 14.0268 19.3701 13.1285C19.2697 12.1926 19.2689 10.7729 19.2689 8.33333H18.2689C18.2689 10.7422 18.2682 12.2317 18.3758 13.2351C18.4874 14.2762 18.7227 14.8656 19.2214 15.4468L19.9803 14.7956ZM21.1397 16.8951C20.8835 15.8459 20.4185 15.3064 19.9803 14.7956L19.2214 15.4468C19.6378 15.9322 19.9705 16.3225 20.1682 17.1323L21.1397 16.8951ZM11.8487 19.5H18.8487V18.5H11.8487V19.5ZM11.8487 18.5H4.84871V19.5H11.8487V18.5ZM3.5292 17.1323C3.72694 16.3225 4.05963 15.9322 4.47606 15.4468L3.71709 14.7956C3.27889 15.3064 2.81394 15.8459 2.55774 16.8951L3.5292 17.1323ZM4.47606 15.4468C4.97469 14.8656 5.21001 14.2762 5.32165 13.2351C5.42926 12.2317 5.42849 10.7422 5.42849 8.33333H4.42849C4.42849 10.7729 4.42772 12.1926 4.32735 13.1285C4.23102 14.0268 4.05038 14.4072 3.71709 14.7956L4.47606 15.4468ZM5.42849 8.33333C5.42849 7.20036 5.94905 6.29425 6.73865 5.57003C7.53598 4.83872 8.59031 4.31214 9.58393 3.97099L9.25919 3.02519C8.18789 3.39301 6.99568 3.97736 6.06271 4.83307C5.122 5.69589 4.42849 6.85292 4.42849 8.33333H5.42849ZM10.1345 2.03934C9.89884 2.21609 9.70175 2.4335 9.56327 2.68425L10.4386 3.1677C10.5012 3.05448 10.5987 2.94117 10.7345 2.83934L10.1345 2.03934ZM10.935 1.63669C10.6429 1.72744 10.3701 1.86264 10.1345 2.03934L10.7345 2.83934C10.8703 2.73746 11.0385 2.65169 11.2317 2.59167L10.935 1.63669ZM11.8487 1.5C11.5375 1.5 11.2273 1.54589 10.935 1.63669L11.2317 2.59167C11.4247 2.53171 11.6347 2.5 11.8487 2.5V1.5ZM12.7624 1.63669C12.4701 1.54589 12.1599 1.5 11.8487 1.5V2.5C12.0628 2.5 12.2727 2.53171 12.4657 2.59167L12.7624 1.63669ZM13.5629 2.03934C13.3273 1.86264 13.0545 1.72744 12.7624 1.63669L12.4657 2.59167C12.6589 2.65169 12.8271 2.73746 12.9629 2.83934L13.5629 2.03934ZM14.1342 2.68425C13.9957 2.4335 13.7986 2.21609 13.5629 2.03934L12.9629 2.83934C13.0987 2.94117 13.1963 3.05448 13.2588 3.1677L14.1342 2.68425ZM4.84871 18.5C4.43066 18.5 4.04529 18.3259 3.79529 18.064C3.55143 17.8085 3.44373 17.4823 3.5292 17.1323L2.55774 16.8951C2.3812 17.6181 2.62383 18.285 3.07195 18.7545C3.51393 19.2175 4.16219 19.5 4.84871 19.5V18.5ZM9.58393 3.97099C10.0321 3.81712 10.2911 3.43488 10.4386 3.1677L9.56327 2.68425C9.44154 2.90465 9.33785 2.99818 9.25919 3.02519L9.58393 3.97099ZM20.1682 17.1323C20.2537 17.4823 20.146 17.8085 19.9021 18.064C19.6521 18.3259 19.2668 18.5 18.8487 18.5V19.5C19.5352 19.5 20.1835 19.2175 20.6255 18.7545C21.0736 18.285 21.3162 17.6181 21.1397 16.8951L20.1682 17.1323ZM13.2588 3.1677C13.4063 3.43488 13.6654 3.81713 14.1135 3.971L14.4382 3.02519C14.3596 2.99818 14.2559 2.90466 14.1342 2.68425L13.2588 3.1677Z" fill="white"/>
<circle cx="21" cy="2" r="2" fill="#A46FF3"/>
</svg>
