<svg width="26" height="26" viewBox="0 0 26 26" fill="none" xmlns="http://www.w3.org/2000/svg">
<rect x="5.5" y="5.5" width="15" height="15" rx="1.5" stroke="black"/>
<path d="M18.4114 16.9512L18.021 17.2635L18.4114 16.9512ZM9.58128 14.5861L9.19717 14.266L9.58128 14.5861ZM13.4293 11.8753L11.1331 14.7455L11.914 15.3702L14.2101 12.5L13.4293 11.8753ZM18.8018 16.6388L14.991 11.8753L14.2101 12.5L18.021 17.2635L18.8018 16.6388ZM12.9974 18.2635H18.021V17.2635H12.9974V18.2635ZM9.359 18.2635H12.9974V17.2635H9.359V18.2635ZM8.00096 18.2635H9.359V17.2635H8.00096V18.2635ZM9.19717 14.266L7.23273 16.6233L8.00096 17.2635L9.96539 14.9062L9.19717 14.266ZM11.1331 14.7455L10.7336 14.266L9.96539 14.9062L10.3649 15.3856L11.1331 14.7455ZM18.021 17.2635V18.2635C18.8595 18.2635 19.3256 17.2936 18.8018 16.6388L18.021 17.2635ZM9.96539 14.9062L9.96539 14.9062L10.7336 14.266C10.3338 13.7863 9.59697 13.7863 9.19717 14.266L9.96539 14.9062ZM11.1331 14.7455L10.3649 15.3856C10.7699 15.8717 11.5188 15.8642 11.914 15.3702L11.1331 14.7455ZM8.00096 17.2635L8.00096 17.2635L7.23273 16.6233C6.68996 17.2747 7.15312 18.2635 8.00096 18.2635V17.2635ZM14.2101 12.5L14.2101 12.5L14.991 11.8753C14.5907 11.3749 13.8296 11.3749 13.4293 11.8753L14.2101 12.5Z" fill="black"/>
<circle cx="9" cy="9" r="1" fill="black"/>
</svg>
