<svg width="320" height="58" viewBox="0 0 320 58" fill="none" xmlns="http://www.w3.org/2000/svg">
<rect y="0.5" width="320" height="57" rx="28.5" fill="white"/>
<path d="M102.96 36.5H100.864L105.575 23.4091H107.857L112.568 36.5H110.471L106.77 25.7869H106.668L102.96 36.5ZM103.312 31.3736H110.113V33.0355H103.312V31.3736ZM114.005 40.1818V26.6818H115.871V28.2734H116.031C116.142 28.0689 116.302 27.8324 116.51 27.5639C116.719 27.2955 117.009 27.0611 117.38 26.8608C117.75 26.6562 118.241 26.554 118.85 26.554C119.643 26.554 120.35 26.7543 120.972 27.1548C121.594 27.5554 122.082 28.1328 122.436 28.8871C122.794 29.6413 122.973 30.549 122.973 31.6101C122.973 32.6712 122.796 33.581 122.442 34.3395C122.089 35.0937 121.603 35.6754 120.985 36.0845C120.367 36.4893 119.662 36.6918 118.869 36.6918C118.272 36.6918 117.785 36.5916 117.405 36.3913C117.03 36.1911 116.736 35.9567 116.523 35.6882C116.31 35.4197 116.146 35.1811 116.031 34.9723H115.916V40.1818H114.005ZM115.878 31.5909C115.878 32.2812 115.978 32.8864 116.178 33.4062C116.378 33.9261 116.668 34.3331 117.047 34.6271C117.427 34.9169 117.891 35.0618 118.441 35.0618C119.012 35.0618 119.489 34.9105 119.873 34.608C120.256 34.3011 120.546 33.8857 120.742 33.3615C120.942 32.8374 121.042 32.2472 121.042 31.5909C121.042 30.9432 120.944 30.3615 120.748 29.8459C120.557 29.3303 120.267 28.9233 119.879 28.625C119.495 28.3267 119.016 28.1776 118.441 28.1776C117.887 28.1776 117.418 28.3203 117.035 28.6058C116.655 28.8913 116.368 29.2898 116.172 29.8011C115.976 30.3125 115.878 30.9091 115.878 31.5909ZM124.814 40.1818V26.6818H126.681V28.2734H126.84C126.951 28.0689 127.111 27.8324 127.32 27.5639C127.529 27.2955 127.818 27.0611 128.189 26.8608C128.56 26.6562 129.05 26.554 129.659 26.554C130.452 26.554 131.159 26.7543 131.781 27.1548C132.404 27.5554 132.892 28.1328 133.245 28.8871C133.603 29.6413 133.782 30.549 133.782 31.6101C133.782 32.6712 133.605 33.581 133.252 34.3395C132.898 35.0937 132.412 35.6754 131.794 36.0845C131.176 36.4893 130.471 36.6918 129.678 36.6918C129.082 36.6918 128.594 36.5916 128.215 36.3913C127.84 36.1911 127.546 35.9567 127.333 35.6882C127.119 35.4197 126.955 35.1811 126.84 34.9723H126.725V40.1818H124.814ZM126.687 31.5909C126.687 32.2812 126.787 32.8864 126.987 33.4062C127.188 33.9261 127.477 34.3331 127.857 34.6271C128.236 34.9169 128.7 35.0618 129.25 35.0618C129.821 35.0618 130.298 34.9105 130.682 34.608C131.066 34.3011 131.355 33.8857 131.551 33.3615C131.752 32.8374 131.852 32.2472 131.852 31.5909C131.852 30.9432 131.754 30.3615 131.558 29.8459C131.366 29.3303 131.076 28.9233 130.688 28.625C130.305 28.3267 129.825 28.1776 129.25 28.1776C128.696 28.1776 128.227 28.3203 127.844 28.6058C127.465 28.8913 127.177 29.2898 126.981 29.8011C126.785 30.3125 126.687 30.9091 126.687 31.5909ZM137.535 23.4091V36.5H135.623V23.4091H137.535ZM144.037 36.6982C143.07 36.6982 142.237 36.4915 141.538 36.0781C140.844 35.6605 140.307 35.0746 139.927 34.3203C139.552 33.5618 139.365 32.6733 139.365 31.6548C139.365 30.6491 139.552 29.7628 139.927 28.9957C140.307 28.2287 140.835 27.63 141.513 27.1996C142.194 26.7692 142.991 26.554 143.903 26.554C144.457 26.554 144.994 26.6456 145.514 26.8288C146.034 27.0121 146.5 27.2997 146.914 27.6918C147.327 28.0838 147.653 28.593 147.892 29.2195C148.13 29.8416 148.25 30.598 148.25 31.4886V32.1662H140.445V30.7344H146.377C146.377 30.2315 146.275 29.7862 146.07 29.3984C145.866 29.0064 145.578 28.6974 145.207 28.4716C144.841 28.2457 144.41 28.1328 143.916 28.1328C143.379 28.1328 142.91 28.2649 142.51 28.5291C142.113 28.7891 141.807 29.13 141.589 29.5518C141.376 29.9695 141.27 30.4233 141.27 30.9134V32.032C141.27 32.6882 141.385 33.2464 141.615 33.7067C141.849 34.1669 142.175 34.5185 142.593 34.7614C143.01 35 143.498 35.1193 144.057 35.1193C144.419 35.1193 144.749 35.0682 145.047 34.9659C145.346 34.8594 145.603 34.7017 145.821 34.4929C146.038 34.2841 146.204 34.0263 146.319 33.7195L148.128 34.0455C147.983 34.5781 147.724 35.0447 147.349 35.4453C146.978 35.8416 146.511 36.1506 145.949 36.3722C145.39 36.5895 144.753 36.6982 144.037 36.6982ZM149.686 34.664H164.428V35.906H149.686V34.664ZM156.274 31.172H157.768V35.186H156.274V31.172ZM151.468 22.838H162.61V27.77H152.998V31.028H151.522V26.564H161.134V24.044H151.468V22.838ZM151.522 30.398H162.988V31.622H151.522V30.398ZM170.408 34.664H185.15V35.906H170.408V34.664ZM176.996 31.172H178.49V35.186H176.996V31.172ZM172.19 22.838H183.332V27.77H173.72V31.028H172.244V26.564H181.856V24.044H172.19V22.838ZM172.244 30.398H183.71V31.622H172.244V30.398ZM188.25 23.36H198.726V24.566H188.25V23.36ZM186.666 34.286H201.372V35.528H186.666V34.286ZM197.934 23.36H199.392V24.98C199.392 27.068 199.392 29.39 198.78 32.9L197.286 32.756C197.934 29.426 197.934 26.996 197.934 24.98V23.36ZM214.751 21.65H216.263V33.53H214.751V21.65ZM205.805 36.32H216.749V37.544H205.805V36.32ZM205.805 32.306H207.281V36.734H205.805V32.306ZM207.533 22.766C209.963 22.766 211.763 24.422 211.763 26.78C211.763 29.12 209.963 30.794 207.533 30.794C205.103 30.794 203.285 29.12 203.285 26.78C203.285 24.422 205.103 22.766 207.533 22.766ZM207.533 24.062C205.949 24.062 204.743 25.178 204.743 26.78C204.743 28.364 205.949 29.48 207.533 29.48C209.117 29.48 210.323 28.364 210.323 26.78C210.323 25.178 209.117 24.062 207.533 24.062Z" fill="black"/>
</svg>
