<svg width="18" height="18" viewBox="0 0 18 18" fill="none" xmlns="http://www.w3.org/2000/svg">
    <path
        d="M15.9606 13.818C15.6997 14.4206 15.3909 14.9754 15.0332 15.4854C14.5455 16.1807 14.1462 16.662 13.8385 16.9293C13.3615 17.368 12.8504 17.5926 12.3031 17.6054C11.9102 17.6054 11.4363 17.4936 10.8848 17.2668C10.3314 17.0411 9.82288 16.9293 9.35788 16.9293C8.87021 16.9293 8.34719 17.0411 7.78776 17.2668C7.22747 17.4936 6.77611 17.6118 6.43101 17.6235C5.90618 17.6459 5.38305 17.4148 4.86088 16.9293C4.52761 16.6386 4.11074 16.1403 3.61136 15.4343C3.07556 14.6805 2.63506 13.8063 2.28997 12.8096C1.92038 11.7331 1.73511 10.6907 1.73511 9.68151C1.73511 8.52548 1.98491 7.52842 2.48525 6.69288C2.87847 6.02175 3.4016 5.49234 4.05633 5.1037C4.71107 4.71505 5.41851 4.517 6.18036 4.50433C6.59722 4.50433 7.14388 4.63328 7.82321 4.8867C8.50063 5.14097 8.93559 5.26991 9.12629 5.26991C9.26887 5.26991 9.75207 5.11914 10.5712 4.81855C11.3458 4.53979 11.9996 4.42437 12.5352 4.46983C13.9865 4.58696 15.0768 5.15907 15.8019 6.18977C14.504 6.97622 13.8619 8.07774 13.8747 9.49081C13.8864 10.5915 14.2857 11.5074 15.0704 12.2346C15.4261 12.5722 15.8232 12.8331 16.2651 13.0183C16.1693 13.2962 16.0681 13.5624 15.9606 13.818ZM12.6321 0.720098C12.6321 1.58279 12.3169 2.38829 11.6887 3.13385C10.9306 4.02018 10.0136 4.53234 9.01918 4.45152C9.00651 4.34802 8.99916 4.23909 8.99916 4.12463C8.99916 3.29644 9.35969 2.41012 9.99995 1.68543C10.3196 1.31851 10.7261 1.01341 11.2191 0.770036C11.7111 0.530289 12.1764 0.397705 12.614 0.375C12.6268 0.490329 12.6321 0.605665 12.6321 0.720087V0.720098Z"
        fill="white" />
</svg>