<svg width="17" height="20" viewBox="0 0 17 20" fill="none" xmlns="http://www.w3.org/2000/svg">
    <path
        d="M7.86862 7.8217C6.84737 7.90373 5.82521 8.08221 4.77582 8.34002C4.3074 8.4554 3.8163 8.17416 3.72007 7.70451C3.65562 7.38901 3.78543 7.11137 3.98242 6.877C4.10588 6.73007 4.25566 6.60026 4.4009 6.48848C5.85698 5.3653 7.64712 4.86681 9.45269 4.65408C9.59884 4.63695 9.74499 4.62163 9.89114 4.60901C9.89114 4.60901 9.89387 4.6063 9.89205 4.6054C7.13422 2.25537 3.74004 0.622887 0 0V16.3943C0 18.3855 1.62583 20 3.63111 20H16.0894C16.6078 20 17.0226 19.5709 16.999 19.0571C16.8956 16.8225 16.429 14.6825 15.6546 12.6939C14.4282 9.54253 11.2601 7.55037 7.86862 7.8217ZM12.7379 15.0313C12.2886 15.7344 11.7439 16.3781 11.1257 16.9405C10.5175 17.4931 9.56979 18.4559 8.66201 18.0818C8.21539 17.8979 8.13096 17.4111 8.32795 17.0091C8.43325 16.7954 8.59211 16.6124 8.74371 16.4285C9.17037 15.9102 9.55436 15.3558 9.88842 14.7744C10.0809 14.4391 10.2325 14.0506 10.4494 13.7161C10.562 13.5422 10.6927 13.3826 10.8552 13.2537C11.3509 12.8607 12.0371 12.8733 12.5228 13.278C13.0475 13.7152 13.0992 14.4661 12.7379 15.0313Z"
        fill="white" />
</svg>