<svg width="100%" height="100%" viewBox="0 0 130 153" fill="current" xmlns="http://www.w3.org/2000/svg">
<path d="M60.5085 59.836C52.7404 60.4635 44.9654 61.8289 36.9833 63.8011C33.4203 64.6838 29.6847 62.5323 28.9528 58.9395C28.4625 56.5259 29.45 54.402 30.9483 52.609C31.8874 51.485 33.0267 50.492 34.1315 49.6369C45.2071 41.0446 58.8237 37.2311 72.5577 35.6037C73.6694 35.4727 74.7811 35.3554 75.8928 35.2589C75.9066 35.2589 75.9135 35.2382 75.8997 35.2313C54.9224 17.2536 29.1047 4.76509 0.65625 0V125.416C0.65625 140.649 13.023 153 28.2761 153H123.04C126.983 153 130.138 149.718 129.959 145.787C129.171 128.692 125.622 112.321 119.732 97.1085C110.404 73.0003 86.3055 57.7603 60.5085 59.836ZM97.5467 114.99C94.1288 120.368 89.9858 125.292 85.2835 129.595C84.9596 129.891 84.6231 130.202 84.2748 130.525C79.6493 134.804 72.965 140.987 66.5434 138.325C63.1462 136.919 62.504 133.195 64.0024 130.119C64.7296 128.635 65.7926 127.345 66.8452 126.067C66.952 125.937 67.0587 125.808 67.1649 125.678C70.4102 121.713 73.331 117.472 75.8721 113.024C76.4889 111.943 77.0506 110.79 77.6176 109.626C78.3961 108.027 79.1845 106.409 80.1393 104.928C80.9955 103.598 81.9899 102.377 83.2258 101.391C86.996 98.3842 92.2161 98.4808 95.9103 101.577C99.9013 104.922 100.295 110.673 97.5467 114.997V114.99Z" fill="#1498AA"/>
</svg>

