<svg width="19" height="23" viewBox="0 0 19 23" fill="none" xmlns="http://www.w3.org/2000/svg">
    <mask id="path-1-outside-1_459_30" maskUnits="userSpaceOnUse" x="0" y="0" width="19" height="23" fill="black">
        <rect fill="white" width="19" height="23" />
        <path
            d="M8.86862 9.8217C7.84737 9.90373 6.82521 10.0822 5.77582 10.34C5.3074 10.4554 4.8163 10.1742 4.72007 9.70451C4.65562 9.38901 4.78543 9.11137 4.98242 8.877C5.10588 8.73007 5.25566 8.60026 5.4009 8.48848C6.85698 7.3653 8.64712 6.86681 10.4527 6.65408C10.5988 6.63695 10.745 6.62163 10.8911 6.60901C10.8911 6.60901 10.8939 6.6063 10.892 6.6054C8.13422 4.25537 4.74004 2.62289 1 2V18.3943C1 20.3855 2.62583 22 4.63111 22H17.0894C17.6078 22 18.0226 21.5709 17.999 21.0571C17.8956 18.8225 17.429 16.6825 16.6546 14.6939C15.4282 11.5425 12.2601 9.55037 8.86862 9.8217ZM13.7379 17.0313C13.2886 17.7344 12.7439 18.3781 12.1257 18.9405C11.5175 19.4931 10.5698 20.4559 9.66201 20.0818C9.21539 19.8979 9.13096 19.4111 9.32795 19.0091C9.43325 18.7954 9.59211 18.6124 9.74371 18.4285C10.1704 17.9102 10.5544 17.3558 10.8884 16.7744C11.0809 16.4391 11.2325 16.0506 11.4494 15.7161C11.562 15.5422 11.6927 15.3826 11.8552 15.2537C12.3509 14.8607 13.0371 14.8733 13.5228 15.278C14.0475 15.7152 14.0992 16.4661 13.7379 17.0313Z" />
    </mask>
    <path
        d="M8.86862 9.8217C7.84737 9.90373 6.82521 10.0822 5.77582 10.34C5.3074 10.4554 4.8163 10.1742 4.72007 9.70451C4.65562 9.38901 4.78543 9.11137 4.98242 8.877C5.10588 8.73007 5.25566 8.60026 5.4009 8.48848C6.85698 7.3653 8.64712 6.86681 10.4527 6.65408C10.5988 6.63695 10.745 6.62163 10.8911 6.60901C10.8911 6.60901 10.8939 6.6063 10.892 6.6054C8.13422 4.25537 4.74004 2.62289 1 2V18.3943C1 20.3855 2.62583 22 4.63111 22H17.0894C17.6078 22 18.0226 21.5709 17.999 21.0571C17.8956 18.8225 17.429 16.6825 16.6546 14.6939C15.4282 11.5425 12.2601 9.55037 8.86862 9.8217ZM13.7379 17.0313C13.2886 17.7344 12.7439 18.3781 12.1257 18.9405C11.5175 19.4931 10.5698 20.4559 9.66201 20.0818C9.21539 19.8979 9.13096 19.4111 9.32795 19.0091C9.43325 18.7954 9.59211 18.6124 9.74371 18.4285C10.1704 17.9102 10.5544 17.3558 10.8884 16.7744C11.0809 16.4391 11.2325 16.0506 11.4494 15.7161C11.562 15.5422 11.6927 15.3826 11.8552 15.2537C12.3509 14.8607 13.0371 14.8733 13.5228 15.278C14.0475 15.7152 14.0992 16.4661 13.7379 17.0313Z"
        stroke="white" stroke-opacity="0.6" stroke-width="2" mask="url(#path-1-outside-1_459_30)" />
</svg>