<svg width="100%" height="100%" viewBox="0 0 18 15" fill="none" xmlns="http://www.w3.org/2000/svg">
<path d="M17.5 13C17.5 13.3978 17.342 13.7794 17.0607 14.0607C16.7794 14.342 16.3978 14.5 16 14.5H2.5C2.10218 14.5 1.72064 14.342 1.43934 14.0607C1.15804 13.7794 1 13.3978 1 13V4.75C1 4.35218 1.15804 3.97064 1.43934 3.68934C1.72064 3.40804 2.10218 3.25 2.5 3.25H5.5L7 1H11.5L13 3.25H16C16.3978 3.25 16.7794 3.40804 17.0607 3.68934C17.342 3.97064 17.5 4.35218 17.5 4.75V13Z" stroke="white" stroke-opacity="0.6" stroke-linecap="round" stroke-linejoin="round"/>
<path d="M9.25 11.5C10.9069 11.5 12.25 10.1569 12.25 8.5C12.25 6.84315 10.9069 5.5 9.25 5.5C7.59315 5.5 6.25 6.84315 6.25 8.5C6.25 10.1569 7.59315 11.5 9.25 11.5Z" stroke="white" stroke-opacity="0.6" stroke-linecap="round" stroke-linejoin="round"/>
</svg>
