<svg width="22" height="26" viewBox="0 0 22 26" fill="none" xmlns="http://www.w3.org/2000/svg">
    <path fill-rule="evenodd" clip-rule="evenodd"
        d="M8 0C7.30964 0 6.75 0.559644 6.75 1.25C6.75 1.94036 7.30964 2.5 8 2.5H9.75V3.32024C4.26344 3.94083 0 8.59753 0 14.25C0 20.3251 4.92487 25.25 11 25.25C17.0751 25.25 22 20.3251 22 14.25C22 8.59753 17.7366 3.94083 12.25 3.32024V2.5H14C14.6904 2.5 15.25 1.94036 15.25 1.25C15.25 0.559644 14.6904 0 14 0H11H8ZM19.5 14.25C19.5 18.9444 15.6944 22.75 11 22.75C6.30558 22.75 2.5 18.9444 2.5 14.25C2.5 9.55558 6.30558 5.75 11 5.75C15.6944 5.75 19.5 9.55558 19.5 14.25ZM10.25 13.25C9.69771 13.6642 9.58579 14.4477 10 15C10.4142 15.5523 11.1977 15.6642 11.75 15.25L15.75 12.25C16.3023 11.8358 16.4142 11.0523 16 10.5C15.5858 9.94771 14.8023 9.83579 14.25 10.25L10.25 13.25Z"
        fill="white" fill-opacity="0.4" />
</svg>