<svg width="28" height="25" viewBox="0 0 28 25" fill="none" xmlns="http://www.w3.org/2000/svg">
    <mask id="path-1-outside-1_3534_4344" maskUnits="userSpaceOnUse" x="0" y="0" width="28" height="25" fill="black">
        <rect fill="white" width="28" height="25" />
        <path fill-rule="evenodd" clip-rule="evenodd"
            d="M16.073 18.8581C21.1571 18.153 25 14.9029 25 11C25 6.58172 20.0751 3 14 3C7.92487 3 3 6.58172 3 11C3 15.0504 7.13889 18.3978 12.5086 18.9271L16.3425 22.2648L16.073 18.8581Z" />
    </mask>
    <path
        d="M16.073 18.8581L15.7296 16.3819C14.4186 16.5637 13.4764 17.7358 13.5808 19.0553L16.073 18.8581ZM12.5086 18.9271L14.1501 17.0415C13.7586 16.7006 13.2705 16.4901 12.7539 16.4392L12.5086 18.9271ZM16.3425 22.2648L14.701 24.1504C15.467 24.8173 16.5604 24.9545 17.4674 24.4975C18.3744 24.0405 18.9148 23.0802 18.8347 22.0677L16.3425 22.2648ZM22.5 11C22.5 13.0937 20.2295 15.7577 15.7296 16.3819L16.4165 21.3344C22.0847 20.5483 27.5 16.7121 27.5 11H22.5ZM14 5.5C16.5666 5.5 18.7886 6.26016 20.3077 7.36499C21.8293 8.47159 22.5 9.78776 22.5 11H27.5C27.5 7.79396 25.7082 5.11013 23.2486 3.32131C20.7865 1.5307 17.5086 0.5 14 0.5V5.5ZM5.5 11C5.5 9.78776 6.17067 8.47159 7.69225 7.36499C9.21139 6.26016 11.4334 5.5 14 5.5V0.5C10.4914 0.5 7.21347 1.5307 4.7514 3.32131C2.29176 5.11013 0.5 7.79396 0.5 11H5.5ZM12.7539 16.4392C7.96978 15.9675 5.5 13.1703 5.5 11H0.5C0.5 16.9305 6.30801 20.828 12.2633 21.415L12.7539 16.4392ZM10.8671 20.8127L14.701 24.1504L17.9841 20.3793L14.1501 17.0415L10.8671 20.8127ZM18.8347 22.0677L18.5652 18.661L13.5808 19.0553L13.8503 22.462L18.8347 22.0677Z"
        fill="white" fill-opacity="0.4" mask="url(#path-1-outside-1_3534_4344)" />
    <circle cx="11" cy="11" r="2" fill="white" fill-opacity="0.4" />
    <circle cx="17" cy="11" r="2" fill="white" fill-opacity="0.4" />
</svg>