<svg width="18" height="18" viewBox="0 0 18 18" fill="none" xmlns="http://www.w3.org/2000/svg">
    <mask id="path-1-inside-1_4247_10065" fill="white">
        <path fill-rule="evenodd" clip-rule="evenodd"
            d="M6 3C3.79086 3 2 4.79086 2 7V10C2 12.2091 3.79086 14 6 14H6.65C6.71295 14 6.77223 14.0296 6.81 14.08L8.2 15.9333C8.6 16.4667 9.4 16.4667 9.8 15.9333L11.19 14.08C11.2278 14.0296 11.287 14 11.35 14H12C14.2091 14 16 12.2091 16 10V7C16 4.79086 14.2091 3 12 3H6Z" />
    </mask>
    <path fill-rule="evenodd" clip-rule="evenodd"
        d="M6 3C3.79086 3 2 4.79086 2 7V10C2 12.2091 3.79086 14 6 14H6.65C6.71295 14 6.77223 14.0296 6.81 14.08L8.2 15.9333C8.6 16.4667 9.4 16.4667 9.8 15.9333L11.19 14.08C11.2278 14.0296 11.287 14 11.35 14H12C14.2091 14 16 12.2091 16 10V7C16 4.79086 14.2091 3 12 3H6Z"
        fill="url(#paint0_linear_4247_10065)" />
    <path
        d="M8.2 15.9333L7.4 16.5333H7.4L8.2 15.9333ZM9.8 15.9333L9 15.3333V15.3333L9.8 15.9333ZM11.19 14.08L10.39 13.48L11.19 14.08ZM6.81 14.08L7.61 13.48L6.81 14.08ZM3 7C3 5.34315 4.34315 4 6 4V2C3.23858 2 1 4.23858 1 7H3ZM3 10V7H1V10H3ZM6 13C4.34315 13 3 11.6569 3 10H1C1 12.7614 3.23858 15 6 15V13ZM6.65 13H6V15H6.65V13ZM9 15.3333L7.61 13.48L6.01 14.68L7.4 16.5333L9 15.3333ZM9 15.3333L9 15.3333L7.4 16.5333C8.2 17.6 9.8 17.6 10.6 16.5333L9 15.3333ZM10.39 13.48L9 15.3333L10.6 16.5333L11.99 14.68L10.39 13.48ZM12 13H11.35V15H12V13ZM15 10C15 11.6569 13.6569 13 12 13V15C14.7614 15 17 12.7614 17 10H15ZM15 7V10H17V7H15ZM12 4C13.6569 4 15 5.34315 15 7H17C17 4.23858 14.7614 2 12 2V4ZM6 4H12V2H6V4ZM11.99 14.68C11.8389 14.8814 11.6018 15 11.35 15V13C10.9723 13 10.6166 13.1778 10.39 13.48L11.99 14.68ZM6.65 15C6.39819 15 6.16108 14.8814 6.01 14.68L7.61 13.48C7.38338 13.1778 7.02771 13 6.65 13V15Z"
        fill="#A46FF3" fill-opacity="0.6" mask="url(#path-1-inside-1_4247_10065)" />
    <path
        d="M8.2 15.9333L7.4 16.5333H7.4L8.2 15.9333ZM9.8 15.9333L9 15.3333V15.3333L9.8 15.9333ZM11.19 14.08L10.39 13.48L11.19 14.08ZM6.81 14.08L7.61 13.48L6.81 14.08ZM3 7C3 5.34315 4.34315 4 6 4V2C3.23858 2 1 4.23858 1 7H3ZM3 10V7H1V10H3ZM6 13C4.34315 13 3 11.6569 3 10H1C1 12.7614 3.23858 15 6 15V13ZM6.65 13H6V15H6.65V13ZM9 15.3333L7.61 13.48L6.01 14.68L7.4 16.5333L9 15.3333ZM9 15.3333L9 15.3333L7.4 16.5333C8.2 17.6 9.8 17.6 10.6 16.5333L9 15.3333ZM10.39 13.48L9 15.3333L10.6 16.5333L11.99 14.68L10.39 13.48ZM12 13H11.35V15H12V13ZM15 10C15 11.6569 13.6569 13 12 13V15C14.7614 15 17 12.7614 17 10H15ZM15 7V10H17V7H15ZM12 4C13.6569 4 15 5.34315 15 7H17C17 4.23858 14.7614 2 12 2V4ZM6 4H12V2H6V4ZM11.99 14.68C11.8389 14.8814 11.6018 15 11.35 15V13C10.9723 13 10.6166 13.1778 10.39 13.48L11.99 14.68ZM6.65 15C6.39819 15 6.16108 14.8814 6.01 14.68L7.61 13.48C7.38338 13.1778 7.02771 13 6.65 13V15Z"
        fill="white" fill-opacity="0.4" mask="url(#path-1-inside-1_4247_10065)" />
    <defs>
        <linearGradient id="paint0_linear_4247_10065" x1="9" y1="3" x2="9" y2="16.3333" gradientUnits="userSpaceOnUse">
            <stop stop-color="#A46FF3" stop-opacity="0.6" />
            <stop offset="1" stop-color="#A46FF3" stop-opacity="0" />
        </linearGradient>
    </defs>
</svg>