<svg width="44" height="26" viewBox="0 0 44 26" fill="none" xmlns="http://www.w3.org/2000/svg">
    <path fill-rule="evenodd" clip-rule="evenodd"
        d="M21.959 26H3.5032C2.60356 26 1.82724 25.3691 1.64333 24.4885L0.0401255 16.8118C-0.0133751 16.5556 -0.0133752 16.2911 0.0401255 16.0349L1.18652 10.5456C1.50579 9.01682 3.43068 8.50473 4.4674 9.67277L8.83875 14.5978C9.6608 15.524 11.135 15.4289 11.8311 14.4047L20.3876 1.81629C21.1416 0.707069 22.7764 0.707069 23.5304 1.81629L32.0869 14.4047C32.783 15.4289 34.2572 15.524 35.0793 14.5978L39.4506 9.67277C40.4873 8.50473 42.4122 9.01682 42.7315 10.5456L43.8779 16.0349C43.9314 16.2911 43.9314 16.5556 43.8779 16.8118L42.2747 24.4885C42.0908 25.3691 41.3144 26 40.4148 26H21.959Z"
        fill="url(#paint0_linear_4767_11818)" />
    <path
        d="M23.2434 10.4732C22.8156 9.31719 21.1805 9.31719 20.7527 10.4732C19.9371 12.6776 18.1991 14.4156 15.9947 15.2313C14.8387 15.659 14.8387 17.2941 15.9947 17.7219C18.1991 18.5376 19.9371 20.2755 20.7527 22.4799C21.1805 23.6359 22.8156 23.6359 23.2434 22.4799C24.059 20.2755 25.797 18.5376 28.0014 17.7219C29.1574 17.2941 29.1574 15.659 28.0014 15.2313C25.797 14.4156 24.059 12.6776 23.2434 10.4732Z"
        fill="#F59D36" stroke="url(#paint1_linear_4767_11818)" stroke-width="0.95" />
    <ellipse cx="21.998" cy="16.9766" rx="3" ry="3.5" fill="url(#paint2_linear_4767_11818)" />
    <ellipse cx="20.998" cy="15.9766" rx="1" ry="1.5" fill="white" />
    <defs>
        <linearGradient id="paint0_linear_4767_11818" x1="21.8131" y1="1.45185" x2="21.8131" y2="27.5447"
            gradientUnits="userSpaceOnUse">
            <stop stop-color="#FFE8A3" />
            <stop offset="0.631868" stop-color="#F5B652" />
            <stop offset="1" stop-color="#E56C51" />
        </linearGradient>
        <linearGradient id="paint1_linear_4767_11818" x1="13.9959" y1="8.50174" x2="21.998" y2="24.4766"
            gradientUnits="userSpaceOnUse">
            <stop stop-color="#F3752E" />
            <stop offset="1" stop-color="#BD23D6" />
        </linearGradient>
        <linearGradient id="paint2_linear_4767_11818" x1="18.9956" y1="13.5013" x2="21.3633" y2="20.6858"
            gradientUnits="userSpaceOnUse">
            <stop stop-color="#F3752E" />
            <stop offset="1" stop-color="#BD23D6" />
        </linearGradient>
    </defs>
</svg>