<svg width="320" height="58" viewBox="0 0 320 58" fill="none" xmlns="http://www.w3.org/2000/svg">
<rect y="0.5" width="320" height="57" rx="28.5" fill="white"/>
<path d="M101.424 40.3864C100.644 40.3864 99.9727 40.2841 99.4102 40.0795C98.852 39.875 98.396 39.6044 98.0423 39.2678C97.6887 38.9311 97.4244 38.5625 97.2497 38.1619L98.8925 37.4844C99.0075 37.6719 99.161 37.87 99.3527 38.0788C99.5487 38.2919 99.8129 38.473 100.145 38.6222C100.482 38.7713 100.915 38.8459 101.443 38.8459C102.167 38.8459 102.766 38.669 103.239 38.3153C103.712 37.9659 103.949 37.4077 103.949 36.6406V34.7102H103.827C103.712 34.919 103.546 35.1513 103.329 35.407C103.116 35.6626 102.821 35.8842 102.446 36.0717C102.071 36.2592 101.584 36.353 100.983 36.353C100.207 36.353 99.5083 36.1719 98.8861 35.8097C98.2682 35.4432 97.7781 34.9041 97.4159 34.1925C97.058 33.4766 96.879 32.5966 96.879 31.5526C96.879 30.5085 97.0558 29.6136 97.4095 28.8679C97.7675 28.1222 98.2575 27.5511 98.8797 27.1548C99.5019 26.7543 100.207 26.554 100.995 26.554C101.605 26.554 102.097 26.6562 102.472 26.8608C102.847 27.0611 103.139 27.2955 103.348 27.5639C103.561 27.8324 103.725 28.0689 103.84 28.2734H103.981V26.6818H105.853V36.7173C105.853 37.5611 105.657 38.2536 105.265 38.7947C104.873 39.3359 104.343 39.7365 103.674 39.9964C103.009 40.2564 102.259 40.3864 101.424 40.3864ZM101.405 34.7678C101.954 34.7678 102.419 34.6399 102.798 34.3842C103.182 34.1243 103.471 33.7536 103.667 33.272C103.868 32.7862 103.968 32.2045 103.968 31.527C103.968 30.8665 103.87 30.2848 103.674 29.782C103.478 29.2791 103.19 28.8871 102.811 28.6058C102.432 28.3203 101.963 28.1776 101.405 28.1776C100.829 28.1776 100.35 28.3267 99.9664 28.625C99.5828 28.919 99.2931 29.3196 99.097 29.8267C98.9053 30.3338 98.8094 30.9006 98.8094 31.527C98.8094 32.1705 98.9074 32.7351 99.1034 33.2209C99.2994 33.7067 99.5892 34.0859 99.9727 34.3587C100.361 34.6314 100.838 34.7678 101.405 34.7678ZM112.252 36.6982C111.332 36.6982 110.529 36.4872 109.842 36.0653C109.156 35.6435 108.624 35.0533 108.244 34.2947C107.865 33.5362 107.676 32.6499 107.676 31.6357C107.676 30.6172 107.865 29.7266 108.244 28.9638C108.624 28.201 109.156 27.6087 109.842 27.1868C110.529 26.7649 111.332 26.554 112.252 26.554C113.173 26.554 113.976 26.7649 114.662 27.1868C115.348 27.6087 115.881 28.201 116.26 28.9638C116.639 29.7266 116.829 30.6172 116.829 31.6357C116.829 32.6499 116.639 33.5362 116.26 34.2947C115.881 35.0533 115.348 35.6435 114.662 36.0653C113.976 36.4872 113.173 36.6982 112.252 36.6982ZM112.259 35.0938C112.855 35.0938 113.35 34.9361 113.742 34.6207C114.134 34.3054 114.423 33.8857 114.611 33.3615C114.803 32.8374 114.899 32.2599 114.899 31.6293C114.899 31.0028 114.803 30.4276 114.611 29.9034C114.423 29.375 114.134 28.951 113.742 28.6314C113.35 28.3118 112.855 28.152 112.259 28.152C111.658 28.152 111.159 28.3118 110.763 28.6314C110.371 28.951 110.079 29.375 109.887 29.9034C109.7 30.4276 109.606 31.0028 109.606 31.6293C109.606 32.2599 109.7 32.8374 109.887 33.3615C110.079 33.8857 110.371 34.3054 110.763 34.6207C111.159 34.9361 111.658 35.0938 112.259 35.0938ZM122.798 36.6982C121.878 36.6982 121.074 36.4872 120.388 36.0653C119.702 35.6435 119.169 35.0533 118.79 34.2947C118.411 33.5362 118.221 32.6499 118.221 31.6357C118.221 30.6172 118.411 29.7266 118.79 28.9638C119.169 28.201 119.702 27.6087 120.388 27.1868C121.074 26.7649 121.878 26.554 122.798 26.554C123.718 26.554 124.522 26.7649 125.208 27.1868C125.894 27.6087 126.427 28.201 126.806 28.9638C127.185 29.7266 127.375 30.6172 127.375 31.6357C127.375 32.6499 127.185 33.5362 126.806 34.2947C126.427 35.0533 125.894 35.6435 125.208 36.0653C124.522 36.4872 123.718 36.6982 122.798 36.6982ZM122.804 35.0938C123.401 35.0938 123.895 34.9361 124.287 34.6207C124.679 34.3054 124.969 33.8857 125.157 33.3615C125.348 32.8374 125.444 32.2599 125.444 31.6293C125.444 31.0028 125.348 30.4276 125.157 29.9034C124.969 29.375 124.679 28.951 124.287 28.6314C123.895 28.3118 123.401 28.152 122.804 28.152C122.204 28.152 121.705 28.3118 121.309 28.6314C120.917 28.951 120.625 29.375 120.433 29.9034C120.245 30.4276 120.152 31.0028 120.152 31.6293C120.152 32.2599 120.245 32.8374 120.433 33.3615C120.625 33.8857 120.917 34.3054 121.309 34.6207C121.705 34.9361 122.204 35.0938 122.804 35.0938ZM133.325 40.3864C132.545 40.3864 131.874 40.2841 131.311 40.0795C130.753 39.875 130.297 39.6044 129.943 39.2678C129.589 38.9311 129.325 38.5625 129.151 38.1619L130.793 37.4844C130.908 37.6719 131.062 37.87 131.253 38.0788C131.45 38.2919 131.714 38.473 132.046 38.6222C132.383 38.7713 132.815 38.8459 133.344 38.8459C134.068 38.8459 134.667 38.669 135.14 38.3153C135.613 37.9659 135.849 37.4077 135.849 36.6406V34.7102H135.728C135.613 34.919 135.447 35.1513 135.229 35.407C135.016 35.6626 134.722 35.8842 134.347 36.0717C133.972 36.2592 133.484 36.353 132.883 36.353C132.108 36.353 131.409 36.1719 130.787 35.8097C130.169 35.4432 129.679 34.9041 129.317 34.1925C128.959 33.4766 128.78 32.5966 128.78 31.5526C128.78 30.5085 128.957 29.6136 129.31 28.8679C129.668 28.1222 130.158 27.5511 130.78 27.1548C131.403 26.7543 132.108 26.554 132.896 26.554C133.506 26.554 133.998 26.6562 134.373 26.8608C134.748 27.0611 135.04 27.2955 135.249 27.5639C135.462 27.8324 135.626 28.0689 135.741 28.2734H135.881V26.6818H137.754V36.7173C137.754 37.5611 137.558 38.2536 137.166 38.7947C136.774 39.3359 136.244 39.7365 135.575 39.9964C134.91 40.2564 134.16 40.3864 133.325 40.3864ZM133.305 34.7678C133.855 34.7678 134.32 34.6399 134.699 34.3842C135.082 34.1243 135.372 33.7536 135.568 33.272C135.768 32.7862 135.869 32.2045 135.869 31.527C135.869 30.8665 135.771 30.2848 135.575 29.782C135.378 29.2791 135.091 28.8871 134.712 28.6058C134.332 28.3203 133.864 28.1776 133.305 28.1776C132.73 28.1776 132.251 28.3267 131.867 28.625C131.484 28.919 131.194 29.3196 130.998 29.8267C130.806 30.3338 130.71 30.9006 130.71 31.527C130.71 32.1705 130.808 32.7351 131.004 33.2209C131.2 33.7067 131.49 34.0859 131.874 34.3587C132.261 34.6314 132.739 34.7678 133.305 34.7678ZM141.929 23.4091V36.5H140.017V23.4091H141.929ZM148.431 36.6982C147.464 36.6982 146.631 36.4915 145.932 36.0781C145.237 35.6605 144.701 35.0746 144.321 34.3203C143.946 33.5618 143.759 32.6733 143.759 31.6548C143.759 30.6491 143.946 29.7628 144.321 28.9957C144.701 28.2287 145.229 27.63 145.907 27.1996C146.588 26.7692 147.385 26.554 148.297 26.554C148.851 26.554 149.388 26.6456 149.908 26.8288C150.428 27.0121 150.894 27.2997 151.308 27.6918C151.721 28.0838 152.047 28.593 152.286 29.2195C152.524 29.8416 152.644 30.598 152.644 31.4886V32.1662H144.839V30.7344H150.771C150.771 30.2315 150.669 29.7862 150.464 29.3984C150.259 29.0064 149.972 28.6974 149.601 28.4716C149.235 28.2457 148.804 28.1328 148.31 28.1328C147.773 28.1328 147.304 28.2649 146.904 28.5291C146.507 28.7891 146.201 29.13 145.983 29.5518C145.77 29.9695 145.664 30.4233 145.664 30.9134V32.032C145.664 32.6882 145.779 33.2464 146.009 33.7067C146.243 34.1669 146.569 34.5185 146.987 34.7614C147.404 35 147.892 35.1193 148.451 35.1193C148.813 35.1193 149.143 35.0682 149.441 34.9659C149.74 34.8594 149.997 34.7017 150.215 34.4929C150.432 34.2841 150.598 34.0263 150.713 33.7195L152.522 34.0455C152.377 34.5781 152.117 35.0447 151.742 35.4453C151.372 35.8416 150.905 36.1506 150.343 36.3722C149.784 36.5895 149.147 36.6982 148.431 36.6982ZM154.079 34.664H168.821V35.906H154.079V34.664ZM160.667 31.172H162.161V35.186H160.667V31.172ZM155.861 22.838H167.003V27.77H157.391V31.028H155.915V26.564H165.527V24.044H155.861V22.838ZM155.915 30.398H167.381V31.622H155.915V30.398ZM174.802 34.664H189.544V35.906H174.802V34.664ZM181.39 31.172H182.884V35.186H181.39V31.172ZM176.584 22.838H187.726V27.77H178.114V31.028H176.638V26.564H186.25V24.044H176.584V22.838ZM176.638 30.398H188.104V31.622H176.638V30.398ZM192.644 23.36H203.12V24.566H192.644V23.36ZM191.06 34.286H205.766V35.528H191.06V34.286ZM202.328 23.36H203.786V24.98C203.786 27.068 203.786 29.39 203.174 32.9L201.68 32.756C202.328 29.426 202.328 26.996 202.328 24.98V23.36ZM219.145 21.65H220.657V33.53H219.145V21.65ZM210.199 36.32H221.143V37.544H210.199V36.32ZM210.199 32.306H211.675V36.734H210.199V32.306ZM211.927 22.766C214.357 22.766 216.157 24.422 216.157 26.78C216.157 29.12 214.357 30.794 211.927 30.794C209.497 30.794 207.679 29.12 207.679 26.78C207.679 24.422 209.497 22.766 211.927 22.766ZM211.927 24.062C210.343 24.062 209.137 25.178 209.137 26.78C209.137 28.364 210.343 29.48 211.927 29.48C213.511 29.48 214.717 28.364 214.717 26.78C214.717 25.178 213.511 24.062 211.927 24.062Z" fill="black"/>
</svg>
