<svg width="26" height="26" viewBox="0 0 26 26" fill="none" xmlns="http://www.w3.org/2000/svg">
    <circle cx="13" cy="13" r="11.75" stroke="white" stroke-opacity="0.4" stroke-width="2.5" />
    <path fill-rule="evenodd" clip-rule="evenodd"
        d="M12.5356 6.83911C12.3829 6.90012 12.2398 6.99245 12.1161 7.11612L8.11612 11.1161C7.62796 11.6043 7.62796 12.3957 8.11612 12.8839C8.60427 13.372 9.39573 13.372 9.88388 12.8839L11.75 11.0177L11.75 18C11.75 18.6904 12.3097 19.25 13 19.25C13.6904 19.25 14.25 18.6904 14.25 18L14.25 11.0178L16.1161 12.8839C16.6043 13.372 17.3957 13.372 17.8839 12.8839C18.372 12.3957 18.372 11.6043 17.8839 11.1161L13.8891 7.12134C13.8719 7.10396 13.8543 7.08709 13.8361 7.07074C13.6146 6.87135 13.3215 6.75 13 6.75M12.5356 6.83911C12.6781 6.78206 12.8335 6.75049 12.9963 6.75001L12.5356 6.83911Z"
        fill="white" fill-opacity="0.4" />
</svg>