<svg width="30" height="30" viewBox="0 0 30 30" fill="none" xmlns="http://www.w3.org/2000/svg">
<path fill-rule="evenodd" clip-rule="evenodd" d="M13.1582 3.93272L4.90818 10.3494C4.17742 10.9178 3.75 11.7917 3.75 12.7174V24.5002C3.75 26.1571 5.09315 27.5002 6.75 27.5002H10.25C10.8023 27.5002 11.25 27.0525 11.25 26.5002V17.4996C11.25 16.8092 11.8096 16.2496 12.5 16.2496H17.5C18.1904 16.2496 18.75 16.8092 18.75 17.4996V26.5002C18.75 27.0525 19.1977 27.5002 19.75 27.5002H23.25C24.9069 27.5002 26.25 26.1571 26.25 24.5002V12.7174C26.25 11.7917 25.8226 10.9178 25.0918 10.3494L16.8418 3.93272C15.7585 3.09013 14.2415 3.09013 13.1582 3.93272Z" fill="white"/>
</svg>
