<svg width="26" height="26" viewBox="0 0 26 26" fill="none" xmlns="http://www.w3.org/2000/svg">
    <path fill-rule="evenodd" clip-rule="evenodd"
        d="M11.4038 3.40904L4.25375 8.97015C3.62043 9.46273 3.25 10.2201 3.25 11.0225V21.2342C3.25 22.6701 4.41406 23.8342 5.85 23.8342H8.88333C9.36198 23.8342 9.75 23.4462 9.75 22.9675V15.0836C9.75 14.5314 10.1977 14.0836 10.75 14.0836H15.25C15.8023 14.0836 16.25 14.5314 16.25 15.0836V22.9675C16.25 23.4462 16.638 23.8342 17.1167 23.8342H20.15C21.5859 23.8342 22.75 22.6701 22.75 21.2342V11.0225C22.75 10.2201 22.3796 9.46273 21.7462 8.97015L14.5962 3.40904C13.6574 2.67879 12.3426 2.67879 11.4038 3.40904Z"
        fill="white" />
</svg>