<svg width="26" height="26" viewBox="0 0 26 26" fill="none" xmlns="http://www.w3.org/2000/svg">
    <path
        d="M4.25375 8.97014L3.94678 8.57546L4.25375 8.97014ZM11.4038 3.40903L11.7107 3.80371V3.80371L11.4038 3.40903ZM21.7462 8.97014L21.4393 9.36482L21.7462 8.97014ZM14.5962 3.40903L14.9032 3.01435V3.01435L14.5962 3.40903ZM4.56072 9.36482L11.7107 3.80371L11.0968 3.01435L3.94678 8.57546L4.56072 9.36482ZM3.75 11.0225C3.75 10.3744 4.04919 9.76267 4.56072 9.36482L3.94678 8.57546C3.19167 9.16278 2.75 10.0658 2.75 11.0225H3.75ZM3.75 21.2342V11.0225H2.75V21.2342H3.75ZM5.85 23.3342C4.6902 23.3342 3.75 22.394 3.75 21.2342H2.75C2.75 22.9463 4.13792 24.3342 5.85 24.3342V23.3342ZM8.88333 23.3342H5.85V24.3342H8.88333V23.3342ZM10.25 22.9675V15.0836H9.25V22.9675H10.25ZM10.25 15.0836C10.25 14.8075 10.4739 14.5836 10.75 14.5836V13.5836C9.92157 13.5836 9.25 14.2552 9.25 15.0836H10.25ZM10.75 14.5836H15.25V13.5836H10.75V14.5836ZM15.25 14.5836C15.5261 14.5836 15.75 14.8075 15.75 15.0836H16.75C16.75 14.2552 16.0784 13.5836 15.25 13.5836V14.5836ZM15.75 15.0836V22.9675H16.75V15.0836H15.75ZM20.15 23.3342H17.1167V24.3342H20.15V23.3342ZM22.25 21.2342C22.25 22.394 21.3098 23.3342 20.15 23.3342V24.3342C21.8621 24.3342 23.25 22.9463 23.25 21.2342H22.25ZM22.25 11.0225V21.2342H23.25V11.0225H22.25ZM21.4393 9.36482C21.9508 9.76268 22.25 10.3744 22.25 11.0225H23.25C23.25 10.0658 22.8083 9.16278 22.0532 8.57546L21.4393 9.36482ZM14.2893 3.80371L21.4393 9.36482L22.0532 8.57546L14.9032 3.01435L14.2893 3.80371ZM11.7107 3.80371C12.4691 3.21389 13.5309 3.21389 14.2893 3.80371L14.9032 3.01435C13.7838 2.14368 12.2162 2.14368 11.0968 3.01435L11.7107 3.80371ZM15.75 22.9675C15.75 23.7223 16.3619 24.3342 17.1167 24.3342V23.3342C16.9142 23.3342 16.75 23.17 16.75 22.9675H15.75ZM8.88333 24.3342C9.63812 24.3342 10.25 23.7223 10.25 22.9675H9.25C9.25 23.17 9.08584 23.3342 8.88333 23.3342V24.3342Z"
        fill="current" />
</svg>