<svg width="16" height="16" viewBox="0 0 16 16" fill="none" xmlns="http://www.w3.org/2000/svg">
    <path fill-rule="evenodd" clip-rule="evenodd"
        d="M3.18418 5.31565C3.31707 5.07237 3.68516 5.23672 3.65657 5.51246C3.6412 5.66362 3.63345 5.8284 3.65072 5.98574C3.67981 6.25293 3.78013 6.50021 4.03289 6.63193C4.35935 6.80214 4.76784 6.65219 4.95279 6.31791C5.84287 4.7131 6.86277 3.36256 8.22895 2.20673C8.44498 2.02396 8.73418 1.94637 9.00624 2.02423C11.5476 2.75154 13.7002 5.9638 13.7002 8.96283C13.7002 12.3705 10.921 13.9997 7.9502 13.9997C4.97944 13.9997 2.2002 12.3705 2.2002 8.96283C2.2002 7.71968 2.57007 6.4399 3.18418 5.31565Z"
        fill="url(#paint0_linear_5307_28032)" />
    <path fill-rule="evenodd" clip-rule="evenodd"
        d="M10.9629 7.10932C12.693 7.783 13.7421 11.3836 9.7272 12.665C8.54827 13.0413 7.7791 13.0418 7.30696 12.9482C7.25913 12.9388 7.20819 12.9243 7.15919 12.9082C7.10353 12.8937 7.04794 12.8751 6.99248 12.852C6.48597 12.6416 6.39023 12.0847 6.61363 11.6248C6.72205 11.4029 6.88055 11.2099 7.03749 11.0188C7.05341 10.9994 7.06931 10.98 7.08514 10.9607C7.569 10.3677 8.00449 9.73344 8.38334 9.06827C8.47532 8.9066 8.55907 8.73413 8.6436 8.56003C8.75966 8.32101 8.87721 8.07892 9.01957 7.85756C9.14723 7.65852 9.29548 7.47598 9.47976 7.32851C9.75333 7.10968 10.0781 7.00077 10.4029 7"
        fill="url(#paint1_linear_5307_28032)" />
    <defs>
        <linearGradient id="paint0_linear_5307_28032" x1="7.9502" y1="1.99414" x2="7.9502" y2="13.9997"
            gradientUnits="userSpaceOnUse">
            <stop stop-color="#FF006B" />
            <stop offset="0.0001" stop-color="#E80045" />
            <stop offset="1" stop-color="#FF52AF" />
        </linearGradient>
        <linearGradient id="paint1_linear_5307_28032" x1="9.5" y1="7" x2="9.5" y2="13" gradientUnits="userSpaceOnUse">
            <stop stop-color="#FFEA7D" />
            <stop offset="1" stop-color="#FFEA7D" stop-opacity="0.8" />
        </linearGradient>
    </defs>
</svg>