<svg width="22" height="22" viewBox="0 0 22 22" fill="none" xmlns="http://www.w3.org/2000/svg">
<path d="M17.2222 3.00049H4.77778C3.79594 3.00049 3 3.79643 3 4.77827V17.2227C3 18.2045 3.79594 19.0005 4.77778 19.0005H17.2222C18.2041 19.0005 19 18.2045 19 17.2227V4.77827C19 3.79643 18.2041 3.00049 17.2222 3.00049Z" stroke="white" stroke-linecap="round" stroke-linejoin="round"/>
<path d="M8.5 10.0005C9.32843 10.0005 10 9.32892 10 8.50049C10 7.67206 9.32843 7.00049 8.5 7.00049C7.67157 7.00049 7 7.67206 7 8.50049C7 9.32892 7.67157 10.0005 8.5 10.0005Z" stroke="white" stroke-linecap="round" stroke-linejoin="round"/>
<path d="M19 13.4171L16.3255 10.5454C16.0004 10.1965 15.5596 10.0005 15.1 10.0005C14.6404 10.0005 14.1996 10.1965 13.8745 10.5454L6 19.0005" stroke="white" stroke-linecap="round" stroke-linejoin="round"/>
</svg>
