<svg width="22" height="22" viewBox="0 0 22 22" fill="none" xmlns="http://www.w3.org/2000/svg">
<path d="M17.2222 3H4.77778C3.79594 3 3 3.79594 3 4.77778V17.2222C3 18.2041 3.79594 19 4.77778 19H17.2222C18.2041 19 19 18.2041 19 17.2222V4.77778C19 3.79594 18.2041 3 17.2222 3Z" stroke="#A46FF3" stroke-width="2" stroke-linecap="round" stroke-linejoin="round"/>
<path d="M8.5 10C9.32843 10 10 9.32843 10 8.5C10 7.67157 9.32843 7 8.5 7C7.67157 7 7 7.67157 7 8.5C7 9.32843 7.67157 10 8.5 10Z" stroke="#A46FF3" stroke-width="2" stroke-linecap="round" stroke-linejoin="round"/>
<path d="M19 13.4166L16.3255 10.5449C16.0004 10.196 15.5596 10 15.1 10C14.6404 10 14.1996 10.196 13.8745 10.5449L6 19" stroke="#A46FF3" stroke-width="2" stroke-linecap="round" stroke-linejoin="round"/>
</svg>
