<svg width="320" height="58" viewBox="0 0 320 58" fill="none" xmlns="http://www.w3.org/2000/svg">
<rect y="0.5" width="320" height="57" rx="28.5" fill="#F8DF02"/>
<path d="M99.8958 23.324H101.354C101.354 28.022 99.7698 32.342 93.9378 35.24L93.1278 34.088C98.2758 31.55 99.8958 27.914 99.8958 23.486V23.324ZM94.0098 23.324H100.778V24.53H94.0098V23.324ZM99.6618 27.356V28.508L93.4338 29.12L93.1998 27.788L99.6618 27.356ZM103.982 21.614H105.494V37.904H103.982V21.614ZM105.08 28.22H108.086V29.462H105.08V28.22ZM116.154 23.324H117.612C117.612 28.022 116.028 32.342 110.196 35.24L109.386 34.088C114.534 31.55 116.154 27.914 116.154 23.486V23.324ZM110.268 23.324H117.036V24.53H110.268V23.324ZM115.92 27.356V28.508L109.692 29.12L109.458 27.788L115.92 27.356ZM120.24 21.614H121.752V37.904H120.24V21.614ZM121.338 28.22H124.344V29.462H121.338V28.22ZM132.089 30.83H133.583V34.88H132.089V30.83ZM132.845 22.694C136.283 22.694 138.749 24.368 138.749 26.96C138.749 29.552 136.283 31.226 132.845 31.226C129.407 31.226 126.923 29.552 126.923 26.96C126.923 24.368 129.407 22.694 132.845 22.694ZM132.845 23.882C130.253 23.882 128.363 25.106 128.363 26.96C128.363 28.814 130.253 30.038 132.845 30.038C135.419 30.038 137.309 28.814 137.309 26.96C137.309 25.106 135.419 23.882 132.845 23.882ZM125.501 34.592H140.243V35.834H125.501V34.592ZM141.76 34.664H156.502V35.906H141.76V34.664ZM148.348 31.172H149.842V35.186H148.348V31.172ZM143.542 22.838H154.684V27.77H145.072V31.028H143.596V26.564H153.208V24.044H143.542V22.838ZM143.596 30.398H155.062V31.622H143.596V30.398ZM174.29 21.614H175.784V37.922H174.29V21.614ZM167.198 22.874C169.61 22.874 171.338 25.088 171.338 28.544C171.338 32.018 169.61 34.232 167.198 34.232C164.804 34.232 163.076 32.018 163.076 28.544C163.076 25.088 164.804 22.874 167.198 22.874ZM167.198 24.224C165.614 24.224 164.498 25.916 164.498 28.544C164.498 31.19 165.614 32.918 167.198 32.918C168.8 32.918 169.898 31.19 169.898 28.544C169.898 25.916 168.8 24.224 167.198 24.224ZM182.358 27.14H183.834V30.218H182.358V27.14ZM188.334 27.14H189.81V30.218H188.334V27.14ZM178.722 29.678H193.428V30.884H178.722V29.678ZM186.066 32.108C189.558 32.108 191.646 33.134 191.646 34.988C191.646 36.842 189.558 37.886 186.066 37.886C182.574 37.886 180.486 36.842 180.486 34.988C180.486 33.134 182.574 32.108 186.066 32.108ZM186.066 33.26C183.528 33.26 181.998 33.89 181.998 34.988C181.998 36.104 183.528 36.716 186.066 36.716C188.622 36.716 190.134 36.104 190.134 34.988C190.134 33.89 188.622 33.26 186.066 33.26ZM186.084 21.92C189.612 21.92 191.808 23.054 191.808 24.962C191.808 26.852 189.612 27.968 186.084 27.968C182.538 27.968 180.36 26.852 180.36 24.962C180.36 23.054 182.538 21.92 186.084 21.92ZM186.084 23.09C183.492 23.09 181.89 23.774 181.89 24.962C181.89 26.132 183.492 26.816 186.084 26.816C188.676 26.816 190.278 26.132 190.278 24.962C190.278 23.774 188.676 23.09 186.084 23.09ZM206.015 21.632H207.509V37.904H206.015V21.632ZM207.149 28.31H210.173V29.57H207.149V28.31ZM194.909 24.224H204.503V25.448H194.909V24.224ZM199.769 26.798C202.073 26.798 203.729 28.346 203.729 30.542C203.729 32.738 202.073 34.286 199.769 34.286C197.483 34.286 195.809 32.738 195.809 30.542C195.809 28.346 197.483 26.798 199.769 26.798ZM199.769 28.04C198.293 28.04 197.231 29.066 197.231 30.542C197.231 32 198.293 33.044 199.769 33.044C201.245 33.044 202.307 32 202.307 30.542C202.307 29.066 201.245 28.04 199.769 28.04ZM198.995 21.83H200.489V24.782H198.995V21.83ZM223.102 21.632H224.596V37.904H223.102V21.632ZM218.332 23.378H219.808C219.808 28.094 217.684 32.216 212.248 34.88L211.456 33.674C216.154 31.406 218.332 27.95 218.332 23.63V23.378ZM212.194 23.378H218.98V24.602H212.194V23.378Z" fill="black"/>
</svg>

