<svg width="30" height="30" viewBox="0 0 30 30" fill="none" xmlns="http://www.w3.org/2000/svg">
<rect x="3" y="3" width="24" height="24" rx="2.5" stroke="white" stroke-opacity="0.8"/>
<path fill-rule="evenodd" clip-rule="evenodd" d="M15.4997 10C15.4997 9.72386 15.2758 9.5 14.9997 9.5C14.7236 9.5 14.4997 9.72386 14.4997 10V14.5006H10C9.72386 14.5006 9.5 14.7245 9.5 15.0006C9.5 15.2768 9.72386 15.5006 10 15.5006H14.4997V20C14.4997 20.2761 14.7236 20.5 14.9997 20.5C15.2758 20.5 15.4997 20.2761 15.4997 20V15.5006H20C20.2761 15.5006 20.5 15.2768 20.5 15.0006C20.5 14.7245 20.2761 14.5006 20 14.5006H15.4997V10Z" fill="white" fill-opacity="0.8"/>
</svg>
