<svg width="375" height="76" viewBox="0 0 375 76" fill="none" xmlns="http://www.w3.org/2000/svg">
<g clip-path="url(#clip0_874_2932)">
<g filter="url(#filter0_b_874_2932)">
<rect width="375" height="76" fill="black" fill-opacity="0.2"/>
</g>
<path fill-rule="evenodd" clip-rule="evenodd" d="M65.1582 19.9327L56.9082 26.3494C56.1774 26.9178 55.75 27.7917 55.75 28.7174V40.5002C55.75 42.1571 57.0931 43.5002 58.75 43.5002H62.25C62.8023 43.5002 63.25 43.0525 63.25 42.5002V33.4996C63.25 32.8092 63.8096 32.2496 64.5 32.2496H69.5C70.1904 32.2496 70.75 32.8092 70.75 33.4996V42.5002C70.75 43.0525 71.1977 43.5002 71.75 43.5002H75.25C76.9069 43.5002 78.25 42.1571 78.25 40.5002V28.7174C78.25 27.7917 77.8226 26.9178 77.0918 26.3494L68.8418 19.9327C67.7585 19.0901 66.2415 19.0901 65.1582 19.9327Z" fill="white"/>
<rect x="135" y="19" width="24" height="24" rx="2.5" stroke="white" stroke-opacity="0.8"/>
<path d="M139.845 36H137.472L141.149 25.3945H143.976L147.638 36H145.279L144.481 33.5537H140.643L139.845 36ZM141.2 31.8398H143.924L142.599 27.7822H142.525L141.2 31.8398ZM148.164 36V25.3945H152.383C154.719 25.3945 155.906 26.5225 155.898 28.1191C155.906 29.3643 155.085 30.1479 153.994 30.3896V30.4922C155.188 30.5508 156.316 31.5029 156.323 33.0703C156.316 34.7549 155.056 36 152.661 36H148.164ZM150.361 34.1836H152.222C153.496 34.1909 154.045 33.6636 154.038 32.8652C154.045 31.9717 153.364 31.3418 152.28 31.3418H150.361V34.1836ZM150.361 29.833H152.06C152.983 29.8403 153.679 29.3203 153.672 28.4707C153.679 27.7017 153.108 27.1816 152.104 27.1816H150.361V29.833Z" fill="white" fill-opacity="0.8"/>
<rect x="215" y="19" width="24" height="24" rx="2.5" stroke="white" stroke-opacity="0.8"/>
<path fill-rule="evenodd" clip-rule="evenodd" d="M227.5 26C227.5 25.7239 227.276 25.5 227 25.5C226.724 25.5 226.5 25.7239 226.5 26V30.5006H222C221.724 30.5006 221.5 30.7245 221.5 31.0006C221.5 31.2768 221.724 31.5006 222 31.5006H226.5V36C226.5 36.2761 226.724 36.5 227 36.5C227.276 36.5 227.5 36.2761 227.5 36V31.5006H232C232.276 31.5006 232.5 31.2768 232.5 31.0006C232.5 30.7245 232.276 30.5006 232 30.5006H227.5V26Z" fill="white" fill-opacity="0.8"/>
<path d="M307 29.75C309.761 29.75 312 27.5114 312 24.75C312 21.9886 309.761 19.75 307 19.75C304.239 19.75 302 21.9886 302 24.75C302 27.5114 304.239 29.75 307 29.75Z" stroke="white" stroke-opacity="0.8" stroke-linecap="round" stroke-linejoin="round"/>
<path d="M296.25 41.25C296.25 36.5556 300.056 32.75 304.75 32.75H309.25C313.944 32.75 317.75 36.5556 317.75 41.25C317.75 42.2165 316.966 43 316 43H298C297.034 43 296.25 42.2165 296.25 41.25Z" stroke="white" stroke-opacity="0.8"/>
</g>
<defs>
<filter id="filter0_b_874_2932" x="-54" y="-54" width="483" height="184" filterUnits="userSpaceOnUse" color-interpolation-filters="sRGB">
<feFlood flood-opacity="0" result="BackgroundImageFix"/>
<feGaussianBlur in="BackgroundImageFix" stdDeviation="27"/>
<feComposite in2="SourceAlpha" operator="in" result="effect1_backgroundBlur_874_2932"/>
<feBlend mode="normal" in="SourceGraphic" in2="effect1_backgroundBlur_874_2932" result="shape"/>
</filter>
<clipPath id="clip0_874_2932">
<rect width="375" height="76" rx="38" fill="white"/>
</clipPath>
</defs>
</svg>
