<svg width="26" height="26" viewBox="0 0 26 26" fill="none" xmlns="http://www.w3.org/2000/svg">
    <path fill-rule="evenodd" clip-rule="evenodd"
        d="M10.5986 5.89485C12.3218 5.31243 14.1979 5.37612 15.8777 6.07404C17.5574 6.77196 18.9263 8.05655 19.7294 9.68863C20.5325 11.3207 20.7151 13.189 20.2432 14.9457C19.7713 16.7024 18.6771 18.2277 17.1642 19.2377C15.6514 20.2476 13.8231 20.6734 12.0198 20.4356C10.2164 20.1979 8.56088 19.3129 7.36147 17.9454C6.16207 16.5779 5.50052 14.8211 5.5 13.0021C5.49992 12.726 5.276 12.5022 4.99986 12.5023C4.72372 12.5023 4.49992 12.7263 4.5 13.0024C4.50059 15.0639 5.25034 17.0549 6.60967 18.6048C7.96899 20.1546 9.84524 21.1576 11.8891 21.4271C13.9329 21.6965 16.0049 21.214 17.7195 20.0694C19.434 18.9248 20.6741 17.1961 21.209 15.2051C21.7438 13.2142 21.5368 11.0968 20.6266 9.24711C19.7165 7.39743 18.1651 5.94155 16.2614 5.15058C14.3576 4.3596 12.2313 4.28743 10.2784 4.9475C8.7985 5.44767 7.49457 6.34247 6.5 7.52274V5.00227C6.5 4.72613 6.27614 4.50227 6 4.50227C5.72386 4.50227 5.5 4.72613 5.5 5.00227V9.00227C5.5 9.27841 5.72386 9.50227 6 9.50227H10C10.2761 9.50227 10.5 9.27841 10.5 9.00227C10.5 8.72613 10.2761 8.50227 10 8.50227H6.99827C7.90314 7.29479 9.15613 6.38237 10.5986 5.89485Z"
        fill="black" />
</svg>