<svg width="100%" height="100%" viewBox="0 0 14 14" fill="none" xmlns="http://www.w3.org/2000/svg">
<path fill-rule="evenodd" clip-rule="evenodd" d="M2.83341 0.77832C2.83341 0.502178 2.60955 0.27832 2.33341 0.27832C2.05727 0.27832 1.83341 0.502178 1.83341 0.77832V3.88943C1.83341 4.16557 2.05727 4.38943 2.33341 4.38943H5.44452C5.72066 4.38943 5.94452 4.16557 5.94452 3.88943C5.94452 3.61329 5.72066 3.38943 5.44452 3.38943H3.35628C3.99299 2.6818 4.81761 2.16629 5.7368 1.90475C6.74573 1.61768 7.81887 1.65073 8.80822 1.99936C9.79757 2.34798 10.6544 2.995 11.2604 3.85117C11.8665 4.70734 12.192 5.73047 12.192 6.77944C12.192 7.05558 12.4158 7.27944 12.692 7.27944C12.9681 7.27944 13.192 7.05558 13.192 6.77944C13.192 5.5235 12.8023 4.29849 12.0766 3.27339C11.351 2.2483 10.3251 1.47362 9.14057 1.0562C7.95602 0.638789 6.67113 0.599209 5.46313 0.942924C4.46587 1.22668 3.56158 1.76012 2.83341 2.48813V0.77832ZM8.7844 12.9604C7.5764 13.3041 6.29151 13.2645 5.10696 12.8471C3.92241 12.4297 2.89655 11.655 2.1709 10.6299C1.44524 9.60483 1.05554 8.37983 1.05554 7.12388C1.05554 6.84774 1.2794 6.62388 1.55554 6.62388C1.83168 6.62388 2.05554 6.84774 2.05554 7.12388C2.05554 8.17285 2.38102 9.19598 2.9871 10.0521C3.59317 10.9083 4.44996 11.5553 5.43931 11.904C6.42865 12.2526 7.5018 12.2856 8.51073 11.9986C9.42992 11.737 10.2545 11.2215 10.8912 10.5139H8.80301C8.52686 10.5139 8.30301 10.29 8.30301 10.0139C8.30301 9.73775 8.52686 9.51389 8.80301 9.51389H11.9141C12.1903 9.51389 12.4141 9.73775 12.4141 10.0139V13.125C12.4141 13.4011 12.1903 13.625 11.9141 13.625C11.638 13.625 11.4141 13.4011 11.4141 13.125V11.4152C10.686 12.1432 9.78166 12.6766 8.7844 12.9604Z" fill="#A46FF3" fill-opacity="current"/>
</svg>
