<svg width="100%" height="100%" viewBox="0 0 24 24" fill="current" xmlns="http://www.w3.org/2000/svg">
    <path
        d="M16.1701 16.5019L16.9744 10.0019C17.003 9.90008 17.0077 9.79297 16.9882 9.68899C16.9688 9.58502 16.9257 9.487 16.8623 9.40266C16.7989 9.31832 16.717 9.24994 16.623 9.2029C16.5289 9.15587 16.4254 9.13145 16.3204 9.13158H12.4242C12.3683 9.13158 12.3132 9.11888 12.2629 9.09442C12.2126 9.06996 12.1684 9.03438 12.1336 8.99032C12.0988 8.94625 12.0744 8.89485 12.062 8.83994C12.0497 8.78503 12.0498 8.72802 12.0624 8.67316L12.2321 7.93284C12.3875 7.25376 12.4374 6.55416 12.3801 5.85968L12.3488 5.48234C12.3154 5.07753 12.1407 4.69777 11.8557 4.41053C11.595 4.14773 11.2415 4.00006 10.8728 4H10.7914C10.5684 4 10.3631 4.12179 10.2551 4.31816L9.3527 5.95513C8.94813 6.68929 8.34506 7.29256 7.61365 7.69474L5.35365 8.93658C5.2465 8.99551 5.1571 9.08248 5.09486 9.18832C5.03263 9.29416 4.99986 9.41496 5 9.538V16.3158C5 16.4973 5.07151 16.6713 5.19881 16.7996C5.32611 16.9279 5.49876 17 5.67878 17H15.5167C15.6645 17 15.8083 16.9513 15.9261 16.8614C16.044 16.7715 16.1298 16.6453 16.1701 16.5019Z"
        stroke="current" stroke-linecap="round" stroke-linejoin="round" />
</svg>