<svg width="427" height="412" viewBox="0 0 427 412" fill="none" xmlns="http://www.w3.org/2000/svg">
<g filter="url(#filter0_d_3278_5128)">
<rect x="106.473" y="0.621878" width="109" height="136" rx="19.5" transform="rotate(16.5783 106.473 0.621878)" fill="#242036"/>
<rect x="106.473" y="0.621878" width="109" height="136" rx="19.5" transform="rotate(16.5783 106.473 0.621878)" fill="#D04376" fill-opacity="0.2"/>
<rect x="106.473" y="0.621878" width="109" height="136" rx="19.5" transform="rotate(16.5783 106.473 0.621878)" stroke="#D04376"/>
<path d="M96.0512 103.421L137.072 44.8142L160.344 51.7423L162.542 123.216L144.123 117.732L144.012 103.809L122.223 97.3226L114.561 108.931L96.0512 103.421ZM143.911 89.6935L143.717 65.8664L143.178 65.7059L130.028 85.5607L143.911 89.6935Z" fill="#D04376"/>
<rect x="321.426" y="114.622" width="109" height="136" rx="19.5" transform="rotate(16.5783 321.426 114.622)" fill="#242036"/>
<rect x="321.426" y="114.622" width="109" height="136" rx="19.5" transform="rotate(16.5783 321.426 114.622)" fill="#D04376" fill-opacity="0.2"/>
<rect x="321.426" y="114.622" width="109" height="136" rx="19.5" transform="rotate(16.5783 321.426 114.622)" stroke="#D04376"/>
<path d="M311.004 217.421L352.025 158.814L375.297 165.742L377.495 237.216L359.076 231.732L358.965 217.809L337.176 211.323L329.514 222.931L311.004 217.421ZM358.864 203.694L358.67 179.866L358.131 179.706L344.982 199.561L358.864 203.694Z" fill="#D04376"/>
<rect x="6.5627" y="117.507" width="109" height="136" rx="19.5" transform="rotate(0.865471 6.5627 117.507)" fill="#242036"/>
<rect x="6.5627" y="117.507" width="109" height="136" rx="19.5" transform="rotate(0.865471 6.5627 117.507)" fill="#1498AA" fill-opacity="0.2"/>
<rect x="6.5627" y="117.507" width="109" height="136" rx="19.5" transform="rotate(0.865471 6.5627 117.507)" stroke="#1498AA"/>
<path d="M33.6448 151.546L62.704 151.985C67.7659 152.061 72.0517 152.829 75.5613 154.288C79.1026 155.717 81.7444 157.726 83.4868 160.315C85.2608 162.873 86.1214 165.902 86.0686 169.402C86.0313 171.871 85.4502 174.128 84.3254 176.173C83.2011 178.188 81.6441 179.883 79.6543 181.26C77.665 182.605 75.3853 183.524 72.815 184.016L72.8051 184.672C75.6471 184.809 78.2451 185.583 80.5991 186.993C82.9843 188.404 84.8615 190.339 86.2308 192.798C87.6006 195.225 88.2618 198.001 88.2146 201.126C88.1589 204.813 87.1405 208.095 85.1593 210.971C83.2098 213.817 80.4259 216.041 76.8076 217.643C73.1897 219.213 68.9592 219.962 64.116 219.889L32.6196 219.413L33.6448 151.546ZM59.7394 205.477C62.8953 205.525 65.279 204.967 66.8905 203.804C68.5332 202.641 69.3721 200.903 69.407 198.591C69.4443 196.123 68.6451 194.204 67.0093 192.836C65.374 191.436 63.119 190.714 60.2443 190.671L50.8704 190.529L50.6467 205.34L59.7394 205.477ZM59.0068 179.494C61.5377 179.533 63.5933 178.97 65.1736 177.806C66.7851 176.643 67.6069 174.999 67.639 172.874C67.6711 170.749 66.9462 169.082 65.4643 167.872C63.9824 166.662 61.9916 166.038 59.4919 166L51.2428 165.876L51.0389 179.374L59.0068 179.494Z" fill="#1498AA"/>
<rect x="12.5755" y="254.535" width="109" height="136" rx="19.5" transform="rotate(-9.4836 12.5755 254.535)" fill="#242036"/>
<rect x="12.5755" y="254.535" width="109" height="136" rx="19.5" transform="rotate(-9.4836 12.5755 254.535)" fill="#D04376" fill-opacity="0.2"/>
<rect x="12.5755" y="254.535" width="109" height="136" rx="19.5" transform="rotate(-9.4836 12.5755 254.535)" stroke="#D04376"/>
<path d="M48.3769 351.461L59.4785 280.791L83.4279 276.79L116.804 340.031L97.8477 343.197L91.6319 330.738L69.2082 334.484L67.4255 348.279L48.3769 351.461ZM85.3389 318.103L74.6964 296.784L74.1416 296.876L71.0525 320.489L85.3389 318.103Z" fill="#D04376"/>
<rect x="190.593" y="57.3967" width="109" height="136" rx="19.5" transform="rotate(-9.52875 190.593 57.3967)" fill="#242036"/>
<rect x="190.593" y="57.3967" width="109" height="136" rx="19.5" transform="rotate(-9.52875 190.593 57.3967)" fill="#1498AA" fill-opacity="0.2"/>
<rect x="190.593" y="57.3967" width="109" height="136" rx="19.5" transform="rotate(-9.52875 190.593 57.3967)" stroke="#1498AA"/>
<path d="M223.373 85.99L252.034 81.1789C257.027 80.3409 261.381 80.323 265.096 81.1253C268.837 81.8915 271.798 83.3908 273.979 85.6231C276.185 87.8194 277.578 90.6434 278.158 94.0951C278.566 96.5298 278.402 98.8547 277.665 101.07C276.922 103.254 275.697 105.203 273.988 106.915C272.274 108.597 270.197 109.912 267.758 110.86L267.867 111.508C270.687 111.129 273.382 111.422 275.952 112.384C278.552 113.342 280.748 114.907 282.538 117.078C284.323 119.218 285.475 121.829 285.992 124.911C286.602 128.547 286.193 131.959 284.763 135.146C283.359 138.297 281.022 140.987 277.752 143.215C274.477 145.412 270.451 146.912 265.674 147.714L234.609 152.929L223.373 85.99ZM258.769 134.329C261.882 133.806 264.126 132.827 265.501 131.392C266.907 129.952 267.419 128.092 267.036 125.811C266.627 123.377 265.495 121.634 263.639 120.583C261.778 119.501 259.43 119.198 256.595 119.674L247.349 121.226L249.801 135.834L258.769 134.329ZM253.361 108.904C255.857 108.485 257.777 107.561 259.122 106.131C260.497 104.696 261.009 102.931 260.657 100.835C260.305 98.7395 259.291 97.2303 257.615 96.3075C255.94 95.3846 253.869 95.1302 251.403 95.544L243.267 96.9098L245.502 110.223L253.361 108.904Z" fill="#1498AA"/>
<rect x="107.489" y="168.562" width="109" height="136" rx="19.5" transform="rotate(-5.30574 107.489 168.562)" fill="#242036"/>
<rect x="107.489" y="168.562" width="109" height="136" rx="19.5" transform="rotate(-5.30574 107.489 168.562)" fill="#D04376" fill-opacity="0.2"/>
<rect x="107.489" y="168.562" width="109" height="136" rx="19.5" transform="rotate(-5.30574 107.489 168.562)" stroke="#D04376"/>
<path d="M136.135 267.839L152.355 198.165L176.533 195.92L205.213 261.424L186.076 263.201L180.784 250.323L158.148 252.425L155.365 266.053L136.135 267.839ZM175.429 237.262L166.368 215.224L165.808 215.276L161.007 238.601L175.429 237.262Z" fill="#D04376"/>
<rect x="198.317" y="168.237" width="109" height="136" rx="19.5" transform="rotate(11.4059 198.317 168.237)" fill="#242036"/>
<rect x="198.317" y="168.237" width="109" height="136" rx="19.5" transform="rotate(11.4059 198.317 168.237)" fill="#1498AA" fill-opacity="0.2"/>
<rect x="198.317" y="168.237" width="109" height="136" rx="19.5" transform="rotate(11.4059 198.317 168.237)" stroke="#1498AA"/>
<path d="M218.716 206.655L247.204 212.403C252.167 213.404 256.24 214.943 259.423 217.02C262.643 219.072 264.873 221.53 266.112 224.394C267.388 227.234 267.68 230.369 266.988 233.8C266.5 236.22 265.516 238.333 264.036 240.138C262.562 241.913 260.721 243.295 258.513 244.284C256.311 245.243 253.902 245.729 251.285 245.743L251.155 246.386C253.924 247.041 256.337 248.277 258.393 250.094C260.48 251.918 261.972 254.163 262.868 256.831C263.771 259.468 263.913 262.318 263.295 265.381C262.566 268.996 260.964 272.036 258.49 274.502C256.053 276.943 252.909 278.62 249.059 279.533C245.215 280.415 240.919 280.377 236.171 279.419L205.293 273.19L218.716 206.655ZM234.504 264.45C237.598 265.074 240.044 264.962 241.841 264.113C243.668 263.271 244.811 261.716 245.268 259.449C245.756 257.029 245.322 254.997 243.964 253.352C242.612 251.676 240.527 250.554 237.709 249.986L228.519 248.132L225.59 262.652L234.504 264.45ZM238.537 238.772C241.018 239.272 243.142 239.095 244.908 238.24C246.706 237.391 247.814 235.925 248.235 233.842C248.655 231.759 248.247 229.987 247.012 228.527C245.776 227.066 243.933 226.089 241.482 225.594L233.395 223.963L230.726 237.196L238.537 238.772Z" fill="#1498AA"/>
<rect x="310.896" y="247.613" width="109" height="136" rx="19.5" transform="rotate(15.0367 310.896 247.613)" fill="#242036"/>
<rect x="310.896" y="247.613" width="109" height="136" rx="19.5" transform="rotate(15.0367 310.896 247.613)" fill="#1498AA" fill-opacity="0.2"/>
<rect x="310.896" y="247.613" width="109" height="136" rx="19.5" transform="rotate(15.0367 310.896 247.613)" stroke="#1498AA"/>
<path d="M328.821 287.245L356.889 294.784C361.778 296.098 365.745 297.892 368.791 300.166C371.874 302.418 373.944 305.013 374.999 307.949C376.093 310.864 376.186 314.012 375.278 317.392C374.638 319.776 373.522 321.822 371.93 323.53C370.347 325.208 368.422 326.471 366.156 327.318C363.898 328.136 361.463 328.468 358.85 328.316L358.68 328.95C361.402 329.779 363.731 331.165 365.668 333.109C367.635 335.061 368.982 337.397 369.708 340.115C370.441 342.804 370.403 345.657 369.592 348.675C368.636 352.237 366.845 355.169 364.219 357.473C361.633 359.755 358.389 361.23 354.489 361.897C350.596 362.534 346.311 362.224 341.633 360.968L311.212 352.796L328.821 287.245ZM340.918 345.923C343.966 346.742 346.414 346.785 348.261 346.052C350.139 345.326 351.377 343.847 351.977 341.614C352.618 339.23 352.313 337.174 351.062 335.446C349.819 333.689 347.809 332.437 345.033 331.691L335.979 329.259L332.136 343.564L340.918 345.923ZM346.569 320.552C349.014 321.209 351.144 321.166 352.961 320.425C354.809 319.691 356.008 318.299 356.559 316.246C357.111 314.194 356.816 312.4 355.675 310.864C354.535 309.328 352.757 308.236 350.343 307.587L342.375 305.447L338.873 318.485L346.569 320.552Z" fill="#1498AA"/>
</g>
<defs>
<filter id="filter0_d_3278_5128" x="0.300781" y="4.87012" width="425.346" height="406.479" filterUnits="userSpaceOnUse" color-interpolation-filters="sRGB">
<feFlood flood-opacity="0" result="BackgroundImageFix"/>
<feColorMatrix in="SourceAlpha" type="matrix" values="0 0 0 0 0 0 0 0 0 0 0 0 0 0 0 0 0 0 127 0" result="hardAlpha"/>
<feOffset dy="4"/>
<feGaussianBlur stdDeviation="2"/>
<feComposite in2="hardAlpha" operator="out"/>
<feColorMatrix type="matrix" values="0 0 0 0 0 0 0 0 0 0 0 0 0 0 0 0 0 0 0.25 0"/>
<feBlend mode="normal" in2="BackgroundImageFix" result="effect1_dropShadow_3278_5128"/>
<feBlend mode="normal" in="SourceGraphic" in2="effect1_dropShadow_3278_5128" result="shape"/>
</filter>
</defs>
</svg>
