<svg width="16" height="16" viewBox="0 0 16 16" fill="none" xmlns="http://www.w3.org/2000/svg">
    <path fill-rule="evenodd" clip-rule="evenodd"
        d="M3.8935 7.77502C3.61185 7.84589 3.40391 7.51515 3.58983 7.29204L7.76953 2.2764C7.88947 2.13248 8.11052 2.13248 8.23046 2.2764L12.4102 7.29204C12.5961 7.51515 12.3881 7.84589 12.1065 7.77502L10.4166 7.34982C10.2304 7.30299 10.0487 7.44056 10.0459 7.63249C10.0196 9.39515 10.1453 11.6833 10.7809 13.5882C10.8475 13.7881 10.702 13.9998 10.4913 13.9998H5.50834C5.29763 13.9998 5.15205 13.7881 5.21873 13.5882C5.85424 11.6833 5.98004 9.39524 5.95374 7.63259C5.95087 7.44066 5.76916 7.30308 5.58301 7.34992L3.8935 7.77502Z"
        fill="url(#paint0_linear_5307_27993)" />
    <defs>
        <linearGradient id="paint0_linear_5307_27993" x1="8.28862" y1="2.92006" x2="8.28862" y2="12.4621"
            gradientUnits="userSpaceOnUse">
            <stop stop-color="#8CFF8A" />
            <stop offset="1" stop-color="#8CFF8A" stop-opacity="0.8" />
        </linearGradient>
    </defs>
</svg>