<svg width="26" height="26" viewBox="0 0 26 26" fill="none" xmlns="http://www.w3.org/2000/svg">
<path fill-rule="evenodd" clip-rule="evenodd" d="M17.9595 3.71484H6.55859C4.98803 3.71484 3.71484 4.98804 3.71484 6.5586V19.5233C3.71484 21.0938 4.98804 22.367 6.5586 22.367H19.5233C21.0938 22.367 22.367 21.0938 22.367 19.5233V8.24436L21.6828 8.93683V19.5233C21.6828 20.7159 20.7159 21.6828 19.5233 21.6828H6.5586C5.36591 21.6828 4.39905 20.7159 4.39905 19.5233V6.5586C4.39905 5.36591 5.36591 4.39905 6.55859 4.39905H17.2835L17.9595 3.71484Z" fill="white"/>
<path d="M22.676 2.74012L22.676 2.74013L22.6777 2.74193L23.274 3.36218L23.5206 3.1251L23.274 3.36219C23.9715 4.08776 23.9744 5.25871 23.2891 5.97083L23.2891 5.97089L13.093 16.5725L9.64813 17.5917C9.64778 17.5918 9.64742 17.5919 9.64707 17.592C9.52127 17.6279 9.38655 17.6114 9.27149 17.5451L9.10215 17.8387L9.27148 17.5451C9.15572 17.4783 9.06784 17.3654 9.03035 17.2289L9.03036 17.2289L9.02953 17.226C9.00141 17.1271 9.00098 17.0218 9.0283 16.9227C9.02832 16.9226 9.02834 16.9225 9.02836 16.9224L10.0332 13.3021L20.2043 2.72622C20.2043 2.72615 20.2044 2.72608 20.2045 2.72601C20.3674 2.55749 20.5609 2.4245 20.7733 2.3343C20.9858 2.24408 21.2133 2.19836 21.4427 2.19955C21.6721 2.20074 21.8991 2.24883 22.1108 2.34127C22.3218 2.43346 22.5142 2.5693 22.676 2.74012Z" stroke="white" stroke-width="0.684211"/>
</svg>
