<svg width="370" height="370" viewBox="0 0 370 370" fill="none" xmlns="http://www.w3.org/2000/svg">
    <circle cx="185" cy="185" r="185" fill="#242036" />
    <path
        d="M250.626 158.836C242.858 159.464 235.083 160.829 227.1 162.801C223.538 163.684 219.802 161.532 219.07 157.94C218.58 155.526 219.567 153.402 221.066 151.609C222.005 150.485 223.144 149.492 224.249 148.637C235.324 140.045 248.941 136.231 262.675 134.604C263.787 134.473 264.898 134.355 266.01 134.259C266.024 134.259 266.031 134.238 266.017 134.231C245.04 116.254 219.222 103.765 190.773 99V224.416C190.773 239.649 203.14 252 218.393 252H313.157C317.1 252 320.255 248.718 320.076 244.787C319.289 227.692 315.74 211.321 309.85 196.108C300.521 172 276.423 156.76 250.626 158.836ZM287.664 213.99C284.246 219.368 280.103 224.292 275.401 228.595C275.077 228.891 274.74 229.202 274.392 229.525C269.766 233.804 263.082 239.987 256.661 237.325C253.263 235.919 252.621 232.195 254.12 229.119C254.847 227.635 255.91 226.345 256.962 225.067C257.069 224.937 257.176 224.808 257.282 224.678C260.527 220.713 263.448 216.472 265.989 212.024C266.606 210.943 267.168 209.79 267.735 208.626C268.513 207.027 269.302 205.409 270.257 203.928C271.113 202.598 272.107 201.377 273.343 200.391C277.113 197.384 282.333 197.481 286.027 200.577C290.019 203.922 290.412 209.673 287.664 213.997V213.99Z"
        fill="#1498AA" />
    <path
        d="M250.626 158.836C242.858 159.464 235.083 160.829 227.1 162.801C223.538 163.684 219.802 161.532 219.07 157.94C218.58 155.526 219.567 153.402 221.066 151.609C222.005 150.485 223.144 149.492 224.249 148.637C235.324 140.045 248.941 136.231 262.675 134.604C263.787 134.473 264.898 134.355 266.01 134.259C266.024 134.259 266.031 134.238 266.017 134.231C245.04 116.254 219.222 103.765 190.773 99V224.416C190.773 239.649 203.14 252 218.393 252H313.157C317.1 252 320.255 248.718 320.076 244.787C319.289 227.692 315.74 211.321 309.85 196.108C300.521 172 276.423 156.76 250.626 158.836ZM287.664 213.99C284.246 219.368 280.103 224.292 275.401 228.595C275.077 228.891 274.74 229.202 274.392 229.525C269.766 233.804 263.082 239.987 256.661 237.325C253.263 235.919 252.621 232.195 254.12 229.119C254.847 227.635 255.91 226.345 256.962 225.067C257.069 224.937 257.176 224.808 257.282 224.678C260.527 220.713 263.448 216.472 265.989 212.024C266.606 210.943 267.168 209.79 267.735 208.626C268.513 207.027 269.302 205.409 270.257 203.928C271.113 202.598 272.107 201.377 273.343 200.391C277.113 197.384 282.333 197.481 286.027 200.577C290.019 203.922 290.412 209.673 287.664 213.997V213.99Z"
        stroke="#1498AA" style="mix-blend-mode:plus-lighter" />
    <path
        d="M55.8064 248.045H99.2328C93.8002 242.956 89.1088 237.126 85.6752 230.32C85.0497 229.074 84.4445 227.682 84.0774 226.263C83.4519 223.854 83.4995 221.354 85.2264 219.291C87.4566 216.625 91.4341 216.418 94.1062 218.619C116.625 237.133 139.994 247.449 175.214 248.052H176.335V131.714C176.335 111.601 155.884 98.0658 137.941 106.471C87.3818 130.164 51.6929 181.1 49.0072 240.81C48.8304 244.756 51.9309 248.052 55.8064 248.052V248.045ZM141.027 155.822C139.953 157.623 138.444 158.952 136.751 160.067C135.295 161.017 133.704 161.807 132.132 162.587C130.98 163.158 129.838 163.725 128.768 164.345C124.383 166.893 120.201 169.815 116.292 173.076C116.164 173.183 116.036 173.289 115.909 173.397C114.649 174.452 113.376 175.518 111.913 176.247C108.881 177.756 105.209 177.106 103.822 173.699C101.207 167.267 107.29 160.571 111.503 155.934C111.824 155.58 112.135 155.238 112.43 154.909C116.673 150.187 121.52 146.039 126.831 142.612C131.515 139.587 137.886 140.362 140.966 145.541C142.836 148.691 142.911 152.686 141.034 155.829L141.027 155.822Z"
        fill="#D04376" />
    <path
        d="M55.8064 248.045H99.2328C93.8002 242.956 89.1088 237.126 85.6752 230.32C85.0497 229.074 84.4445 227.682 84.0774 226.263C83.4519 223.854 83.4995 221.354 85.2264 219.291C87.4566 216.625 91.4341 216.418 94.1062 218.619C116.625 237.133 139.994 247.449 175.214 248.052H176.335V131.714C176.335 111.601 155.884 98.0658 137.941 106.471C87.3818 130.164 51.6929 181.1 49.0072 240.81C48.8304 244.756 51.9309 248.052 55.8064 248.052V248.045ZM141.027 155.822C139.953 157.623 138.444 158.952 136.751 160.067C135.295 161.017 133.704 161.807 132.132 162.587C130.98 163.158 129.838 163.725 128.768 164.345C124.383 166.893 120.201 169.815 116.292 173.076C116.164 173.183 116.036 173.289 115.909 173.397C114.649 174.452 113.376 175.518 111.913 176.247C108.881 177.756 105.209 177.106 103.822 173.699C101.207 167.267 107.29 160.571 111.503 155.934C111.824 155.58 112.135 155.238 112.43 154.909C116.673 150.187 121.52 146.039 126.831 142.612C131.515 139.587 137.886 140.362 140.966 145.541C142.836 148.691 142.911 152.686 141.034 155.829L141.027 155.822Z"
        stroke="#D04376" style="mix-blend-mode:screen" />
</svg>